<?xml version="1.0" encoding="UTF-8"?>
<svg version="1.1" xmlns="http://www.w3.org/2000/svg" width="1022" height="757">
<path d="M0 0 C337.26 0 674.52 0 1022 0 C1022 249.81 1022 499.62 1022 757 C684.74 757 347.48 757 0 757 C0 507.19 0 257.38 0 0 Z " fill="#FEFEFD" transform="translate(0,0)"/>
<path d="M0 0 C28.00915395 -0.07032557 56.01829452 -0.12310293 84.02751923 -0.15543652 C97.03497788 -0.17085383 110.04238142 -0.19184426 123.04980469 -0.22631836 C134.39743417 -0.2563789 145.7450237 -0.27561224 157.0926919 -0.28226548 C163.09176745 -0.28614973 169.0907288 -0.29516906 175.08976746 -0.31719017 C180.75652041 -0.33781954 186.42311403 -0.34378141 192.08990097 -0.33932304 C194.15035244 -0.34013659 196.21081023 -0.34594248 198.27122879 -0.35761642 C212.2329351 -0.43272259 225.74778057 0.67462354 239.56979465 2.65259588 C242.62657269 3.08957018 245.68806272 3.48774637 248.75 3.88671875 C276.96266451 8.01866852 301.63091568 18.05889762 323.703125 36.12109375 C325.04796133 37.22120646 326.40689192 38.30516894 327.796875 39.34765625 C344.19370652 52.11376079 353.36409063 72.62685731 359 92 C359.32871094 93.10085937 359.65742188 94.20171875 359.99609375 95.3359375 C362.13375729 102.80241782 363.15203052 110.04327628 363.23828125 117.8203125 C363.24821106 118.55272659 363.25814087 119.28514069 363.26837158 120.03974915 C363.65508621 155.9944702 356.73950498 186.55512842 330.9296875 213.0703125 C329.95566316 214.04940658 328.97923617 215.02611851 328 216 C327.17757813 216.82242188 326.35515625 217.64484375 325.5078125 218.4921875 C304.524977 238.37428409 275.76696515 248.43094891 248 254 C247.04996094 254.19126465 246.09992188 254.3825293 245.12109375 254.57958984 C242.74790038 255.05564709 240.37423497 255.52916957 238 256 C238.59425781 256.70382812 239.18851563 257.40765625 239.80078125 258.1328125 C244.96875057 264.28936693 250.01685949 270.51928088 254.9621582 276.85595703 C257.76423523 280.44162811 260.60630068 283.98732756 263.5 287.5 C268.29391567 293.32605765 272.94557216 299.25857379 277.59277344 305.20166016 C280.34882048 308.72370084 283.11461145 312.23809384 285.87890625 315.75366211 C288.14982699 318.64257244 290.4179695 321.53356504 292.6796875 324.4296875 C297.59569784 330.71710936 302.57267571 336.94643605 307.625 343.125 C312.07345894 348.57140711 316.37818268 354.09265031 320.5625 359.74609375 C324.21608404 364.65754567 328.00756756 369.46378721 331.77270508 374.28979492 C335.24419295 378.74028827 338.69616797 383.20406746 342.125 387.6875 C346.17418395 392.96270528 350.30344498 398.16844585 354.47583008 403.34667969 C356.91156289 406.37281084 359.32657566 409.40903323 361.6796875 412.5 C368.86666888 421.91057046 376.78057497 430.4842905 385 439 C385.77472656 439.81597656 386.54945313 440.63195312 387.34765625 441.47265625 C400.03956386 454.58154646 415.7327583 464.69385538 430.97265625 474.57421875 C431.64167969 475.04472656 432.31070312 475.51523437 433 476 C433 476.33 433 476.66 433 477 C420.82184391 477.37187784 408.64505217 477.65557447 396.46236038 477.82899475 C390.80407485 477.91226426 385.14969146 478.02503126 379.49365234 478.20703125 C374.02732295 478.38181152 368.5647266 478.47672435 363.09581757 478.51803589 C361.0174048 478.54744213 358.93918094 478.60487876 356.86237335 478.69168091 C341.03580144 479.32642545 341.03580144 479.32642545 335.95948792 475.43629456 C332.32933367 471.66691577 329.61802736 467.44801315 327.07958221 462.89175415 C325.64856591 460.38418132 323.95211152 458.12483473 322.1875 455.84375 C321.12444506 454.39624072 320.0619345 452.94833146 319 451.5 C314.69616503 445.64411835 310.36962962 439.80695016 306 434 C298.66088893 424.24345764 291.43979755 414.4003789 284.20898438 404.56347656 C276.19636254 393.66543517 268.13424382 382.80754617 260 372 C253.09021165 362.81932405 246.22732514 353.60708989 239.42236328 344.34838867 C234.52661239 337.69554918 229.57444798 331.08630166 224.60839844 324.48583984 C220.34407746 318.81148834 216.13120792 313.10165752 211.9375 307.375 C206.74906799 300.29473853 201.41963913 293.34024123 195.98388672 286.44824219 C193.27260376 282.99360493 190.62945057 279.52417715 188.14453125 275.90234375 C187.70463867 275.26272705 187.26474609 274.62311035 186.81152344 273.96411133 C185.6534171 272.25886992 184.51527688 270.54011492 183.37890625 268.8203125 C178.13548104 262.60396931 170.83564962 260.27953503 163 259 C156.12096686 258.4179265 149.21157205 258.39708772 142.3125 258.3125 C140.43552388 258.27926914 138.55856969 258.24477432 136.68164062 258.20898438 C132.12107841 258.12240417 127.56123231 258.06178222 123 258 C123 252.39 123 246.78 123 241 C126.48590698 240.97812622 126.48590698 240.97812622 130.04223633 240.95581055 C137.79751238 240.90503894 145.55259652 240.83837506 153.30768299 240.76428509 C158.00075819 240.71992094 162.69375331 240.68059444 167.38696289 240.65356445 C171.93240318 240.62718708 176.47752938 240.58655446 181.02277184 240.53681374 C182.74029258 240.52037395 184.45786735 240.50871961 186.17545509 240.50238609 C202.07346205 240.437945 217.92668184 239.07517018 233 233.6875 C233.88026855 233.38191162 234.76053711 233.07632324 235.66748047 232.76147461 C257.42688712 224.99601334 274.60958693 210.1826896 284.9387207 189.4777832 C293.17643311 172.01033435 296.36554831 154.63919942 296.31567383 135.42089844 C296.31253109 132.89994286 296.33599211 130.38018504 296.36132812 127.859375 C296.48486973 96.28013592 287.05290969 67.77401247 265.53515625 44.3125 C258.88551029 37.93946161 251.06496021 33.34404038 243 29 C242.0925 28.505 241.185 28.01 240.25 27.5 C226.04151446 20.7340545 209.00323583 18.77761065 193.453125 18.39453125 C192.26950378 18.35884537 191.08588257 18.32315948 189.86639404 18.28639221 C173.6648327 17.82889576 157.45621744 17.64297745 141.25 17.4375 C130.2775 17.293125 119.305 17.14875 108 17 C108 39.77 108 62.54 108 86 C101.4 89.63 94.8 93.26 88 97 C81.9390441 100.93143085 75.94115005 104.89803028 70 109 C68.48752989 110.03335861 66.9745095 111.06591227 65.4609375 112.09765625 C58.46686903 116.81042318 58.46686903 116.81042318 51.6796875 121.80859375 C50 123 50 123 48 123 C47.99453156 121.57751701 47.99453156 121.57751701 47.98895264 120.126297 C47.95182535 111.1385822 47.89386151 102.15120443 47.81609726 93.16374683 C47.77678212 88.54445397 47.74451607 83.92534719 47.72900391 79.3059082 C47.71373123 74.83822512 47.67910089 70.37105417 47.63169098 65.90360069 C47.61698562 64.20903695 47.6089653 62.51440005 47.60811615 60.81977272 C47.59466936 47.42597126 46.68676032 33.31305948 37 23 C26.30613526 14.48310058 13.19021194 12.36947556 0 11 C0 7.37 0 3.74 0 0 Z " fill="#C6A181" transform="translate(140,37)"/>
<path d="M0 0 C4.17184146 0.57047542 7.68879916 1.52867835 11.55078125 3.1953125 C13.16182739 3.88633057 13.16182739 3.88633057 14.80541992 4.59130859 C15.96275635 5.09742676 17.12009277 5.60354492 18.3125 6.125 C19.54594332 6.66105404 20.77942403 7.19702206 22.01293945 7.73291016 C25.32621039 9.17642351 28.63383675 10.63247684 31.94006348 12.09204102 C34.00378917 13.00167015 36.06954498 13.90654755 38.13574219 14.81054688 C80.38924733 33.33064946 123.67608095 54.66079129 142 100 C147.11022383 114.25011018 149.42339078 128.15812197 149.375 143.3125 C149.3737915 144.01387085 149.37258301 144.7152417 149.37133789 145.43786621 C149.20189777 181.84889552 136.12309928 211.33197954 110.43041992 236.93847656 C104.7489354 242.43262606 98.75080632 246.85763672 92 251 C91.10788818 251.55397461 91.10788818 251.55397461 90.19775391 252.11914062 C72.63408208 262.91199628 54.18583949 269.18255702 34 273 C32.81059814 273.24556641 32.81059814 273.24556641 31.59716797 273.49609375 C19.0599771 276.05050351 6.55908947 276.28444634 -6.1875 276.3125 C-7.38270264 276.31801376 -7.38270264 276.31801376 -8.60205078 276.32363892 C-59.82991922 276.44696038 -110.70130885 260.21521944 -148.7109375 225.1015625 C-150.7224798 223.25478817 -152.78002198 221.50012567 -154.875 219.75 C-164.33936895 211.4662968 -172.28313809 201.64765233 -179.91796875 191.703125 C-181.74171958 189.21537502 -181.74171958 189.21537502 -183 188 C-183.09429342 185.82194281 -183.11742538 183.6407872 -183.11352539 181.46069336 C-183.11367142 180.77779739 -183.11381744 180.09490143 -183.1139679 179.39131165 C-183.11326876 177.12412386 -183.1054764 174.85701726 -183.09765625 172.58984375 C-183.09579207 171.02185613 -183.09436817 169.45386793 -183.09336853 167.88587952 C-183.08954334 163.75123497 -183.07971306 159.61662534 -183.06866455 155.48199463 C-183.05845044 151.26599602 -183.05387091 147.04999178 -183.04882812 142.83398438 C-183.03809079 134.55597353 -183.02101436 126.2779911 -183 118 C-183.68407928 117.79576416 -184.36815857 117.59152832 -185.07296753 117.38110352 C-185.97169586 117.11225342 -186.87042419 116.84340332 -187.79638672 116.56640625 C-188.686716 116.30029541 -189.57704529 116.03418457 -190.49435425 115.76000977 C-193.38577842 114.88298611 -196.25319198 113.9390108 -199.125 113 C-208.73168482 110.06122272 -218.5100396 108.4475862 -228.44921875 107.13671875 C-229.59044189 106.97945313 -230.73166504 106.8221875 -231.9074707 106.66015625 C-234.16509184 106.35242165 -236.4254067 106.06365867 -238.68823242 105.796875 C-246.81638577 104.67924619 -254.24206239 102.35358809 -259.76977539 95.94970703 C-264.10320413 89.71537774 -264.18450025 82.28725154 -263 75 C-260.57820134 69.09117544 -256.39190082 66.21390579 -250.66892433 63.8053112 C-245.5679136 62.26615138 -240.43104136 62.45473643 -235.14331055 62.49829102 C-233.25367584 62.49018654 -233.25367584 62.49018654 -231.3258667 62.48191833 C-227.89370712 62.46804302 -224.46205336 62.47907881 -221.02992225 62.49562955 C-217.42007624 62.50957018 -213.81025695 62.50300943 -210.20039368 62.49949646 C-204.13717592 62.49680037 -198.07415679 62.51021435 -192.01098633 62.53344727 C-185.02919188 62.56001725 -178.04773006 62.56181335 -171.06590241 62.5500589 C-164.31853326 62.53922662 -157.5712829 62.54551299 -150.82392311 62.55961418 C-147.96736613 62.56533061 -145.11089733 62.56532582 -142.25433922 62.56054878 C-138.25100433 62.55482837 -134.24815314 62.57422772 -130.24487305 62.59594727 C-128.493377 62.58919479 -128.493377 62.58919479 -126.70649719 62.58230591 C-105.04743254 62.77631567 -87.42329126 72.48060187 -72.16015625 87.2109375 C-71 89 -71 89 -71.30859375 91.2265625 C-71.53675781 91.81179688 -71.76492188 92.39703125 -72 93 C-74 93 -74 93 -76.125 90.9375 C-76.57230469 90.47859375 -77.01960937 90.0196875 -77.48046875 89.546875 C-84.35821273 82.54536699 -92.08208069 77.12994993 -101 73 C-101.72119019 72.65472763 -102.44238037 72.30945526 -103.1854248 71.95372009 C-113.90842764 67.62249543 -125.11441943 68.49896125 -136.484375 68.609375 C-138.75408426 68.6168468 -141.02380002 68.62253529 -143.29351807 68.62652588 C-149.23163043 68.64170818 -155.16934376 68.68092567 -161.1072998 68.7253418 C-167.18085332 68.76645496 -173.25447208 68.78457102 -179.328125 68.8046875 C-191.21892413 68.84742751 -203.10942872 68.91558826 -215 69 C-213.99477295 69.52166748 -212.9895459 70.04333496 -211.95385742 70.58081055 C-210.60842147 71.28668035 -209.26313311 71.99283152 -207.91796875 72.69921875 C-207.258573 73.04045776 -206.59917725 73.38169678 -205.9197998 73.73327637 C-194.89387574 79.5462059 -185.7305381 87.86066357 -176.72070312 96.37646484 C-174.78479016 98.20305696 -172.83800513 100.01767134 -170.890625 101.83203125 C-163.38807906 108.83861056 -155.9820499 115.90990731 -148.80859375 123.25390625 C-146.75578258 125.26103595 -144.7165017 127.11223383 -142.53515625 128.96484375 C-135.34778186 135.18926764 -128.80896379 142.13838332 -122.12695312 148.89355469 C-120.29510246 150.74366619 -118.46011693 152.59062912 -116.625 154.4375 C-116.0789209 154.99187744 -115.5328418 155.54625488 -114.97021484 156.11743164 C-112.11984414 158.98542907 -109.2239786 161.64161208 -106.09228516 164.20068359 C-102.83561552 166.98151573 -100.65329288 169.86540572 -98.31787109 173.44775391 C-92.0932343 182.22738494 -85.48011056 189.28974377 -74.48840332 191.16833496 C-59.55246188 192.95929435 -44.34086239 192.11435559 -29.35180664 191.51062012 C-23.10468018 191.28328446 -16.85556151 191.18461531 -10.60546875 191.07421875 C1.60155859 190.84007431 13.79977176 190.4659626 26 190 C23.01669981 186.99168504 20.02990259 183.98689606 17.04003906 180.98510742 C16.02673848 179.96682708 15.01434288 178.94764526 14.00292969 177.92749023 C8.69613607 172.57603549 3.3804939 167.28867923 -2.36705017 162.40342712 C-8.95567387 156.74088132 -14.92850927 150.25571752 -20.5625 143.66015625 C-22.28180643 141.6745442 -24.10564999 139.81857601 -26 138 C-25.67 137.01 -25.34 136.02 -25 135 C-20.45180624 136.41856754 -17.64507691 138.94346779 -14.38354492 142.27587891 C-13.84636841 142.81261734 -13.30919189 143.34935577 -12.7557373 143.90235901 C-10.99010584 145.67007279 -9.23532611 147.44815796 -7.48046875 149.2265625 C-6.25515776 150.45747141 -5.02918072 151.68771762 -3.80256653 152.91732788 C-0.58195051 156.14937717 2.62955302 159.39033513 5.8392334 162.63323975 C9.11847954 165.94321931 12.40627542 169.24468218 15.69335938 172.546875 C22.1372963 179.02294931 28.57163729 185.50846854 35 192 C34.67 192.99 34.34 193.98 34 195 C19.53802411 195.90009184 5.07985981 196.56343265 -9.40470314 196.96886253 C-16.13782327 197.1624629 -22.84970588 197.4290921 -29.57275391 197.86669922 C-77.19936708 200.88632776 -77.19936708 200.88632776 -93.97167969 186.61816406 C-102.39432125 178.95805934 -109.71387891 170.31981464 -116.56161499 161.24526978 C-119.43655692 157.51553338 -122.60524173 154.48796878 -126.22156715 151.48189354 C-128.73759146 149.38539595 -131.01411223 147.08055805 -133.3125 144.75 C-133.99953003 144.05729004 -133.99953003 144.05729004 -134.70043945 143.35058594 C-136.61641917 141.41860435 -138.52621165 139.48055216 -140.43652344 137.54296875 C-145.53198348 132.38142425 -150.65334964 127.32656446 -156.16796875 122.609375 C-159.26297717 119.89051899 -162.11934569 116.94217889 -165 114 C-169.19756632 109.75860501 -173.39888011 105.61031231 -177.96484375 101.76171875 C-180.0907122 99.92147562 -182.12363434 97.99597173 -184.16259766 96.06054688 C-200.64632933 80.5427207 -221.76851631 67.49995968 -245.015625 67.64453125 C-249.49099027 68.17759177 -252.69123805 69.98817822 -256 73 C-259.12905714 77.69358572 -258.56209955 82.50707786 -258 88 C-256.54417237 92.91668732 -253.62496267 95.65097219 -249.15698242 98.08984375 C-244.93080305 99.87311446 -240.45210331 100.35879547 -235.9375 101 C-233.7850371 101.33778326 -231.63269574 101.67634183 -229.48046875 102.015625 C-226.34030108 102.49563873 -223.19954296 102.97046751 -220.05712891 103.43554688 C-206.74531206 105.43704645 -195.00654662 108.79076826 -182.71386719 114.32910156 C-180.99635164 115.12150646 -180.99635164 115.12150646 -179 115 C-180.46497741 113.56866508 -181.94790933 112.155702 -183.4375 110.75 C-184.67306641 109.56664062 -184.67306641 109.56664062 -185.93359375 108.359375 C-192.48570788 103.31800311 -199.34226013 101.39527951 -207.4375 100.375 C-208.29641846 100.25511719 -209.15533691 100.13523437 -210.0402832 100.01171875 C-215.14077543 99.31587824 -220.24958277 98.75269958 -225.37084961 98.2355957 C-242.57460429 96.4860306 -242.57460429 96.4860306 -247.5 91.4375 C-250.02558465 87.33342494 -250.41441761 84.89012774 -250 80 C-248.20437595 77.24670979 -246.94745078 75.47372539 -244 74 C-225.32105713 72.32192119 -209.493699 82.15279166 -195.5 93.625 C-193.53011376 95.27139887 -191.57232844 96.92994328 -189.62548828 98.60351562 C-188.3449574 99.70364128 -187.0483576 100.78506375 -185.74609375 101.859375 C-180.33645454 106.39272276 -175.46598517 111.50608859 -170.50341797 116.51538086 C-166.71192864 120.3311441 -162.86555654 123.99258616 -158.75390625 127.46484375 C-156.02499734 129.85339876 -153.52780002 132.46401703 -150.984375 135.046875 C-149.1322053 136.86987667 -147.2282482 138.56603666 -145.25 140.25 C-141.13638456 143.78058333 -137.34496288 147.59446024 -133.56347656 151.47363281 C-130.89324356 154.19099824 -128.16111581 156.71335288 -125.23014832 159.14900208 C-121.65100149 162.26515491 -118.80899622 165.58544907 -115.95349312 169.36192131 C-105.08427481 183.66115604 -92.38242468 199.26179467 -73.92461967 202.66462898 C-59.04276638 204.57722429 -44.01307289 203.83509425 -29.0769043 203.00415039 C-22.50832848 202.68048383 -15.93614878 202.57645246 -9.36132812 202.45117188 C3.43757407 202.17625807 16.21624884 201.67507986 29 201 C29 202.32 29 203.64 29 205 C10.76710991 206.33939248 -7.47527811 207.24768705 -25.75 207.75 C-26.74825389 207.77796842 -26.74825389 207.77796842 -27.76667452 207.80650187 C-87.73612823 209.43137002 -87.73612823 209.43137002 -106.43380737 192.57821655 C-114.53014744 184.79652589 -121.23715137 175.50121261 -126.87768555 165.83374023 C-129.41561432 161.58950495 -132.25495616 158.6149212 -136.10444641 155.53199768 C-139.49204616 152.79411942 -142.45382492 149.60626292 -145.5 146.5 C-150.49855532 141.45266323 -155.51597576 136.52461611 -161 132 C-162.07191549 131.10713196 -163.14350802 130.2138761 -164.21484375 129.3203125 C-165.13394531 128.55460938 -166.05304688 127.78890625 -167 127 C-158.6325949 149.14986066 -150.04577532 170.74169339 -136 190 C-135.5870166 190.57379395 -135.1740332 191.14758789 -134.74853516 191.73876953 C-109.76785222 226.10777577 -73.42602902 248.42263515 -31.48828125 255.08984375 C-23.80729128 256.14934346 -16.24391843 256.29614053 -8.5 256.25 C-7.20191406 256.25773437 -5.90382813 256.26546875 -4.56640625 256.2734375 C24.48452853 256.21539367 53.99241838 248.22094657 75.40234375 227.8515625 C93.50319459 207.98145556 98.29840948 184.26547709 97.20263672 158.04492188 C96.05142267 140.746197 88.66194851 124.75163357 77 112 C76.44441406 111.35289062 75.88882812 110.70578125 75.31640625 110.0390625 C55.45723429 88.3664695 22.65530414 75.88264378 -4 65 C-4.02727345 62.33326258 -4.04696948 59.66681131 -4.0625 57 C-4.07087891 56.25621094 -4.07925781 55.51242187 -4.08789062 54.74609375 C-4.10657896 50.44777724 -3.84304675 46.34032512 -3.24731445 42.07275391 C-2.77654211 38.12718903 -2.70796269 34.15591564 -2.5625 30.1875 C-2.14367853 20.06794108 -1.18371209 10.05580656 0 0 Z " fill="#232B34" transform="translate(691,248)"/>
<path d="M0 0 C-2.47823069 10.77877552 -9.29426948 20.43447703 -16 29 C-16.556875 29.76054687 -17.11375 30.52109375 -17.6875 31.3046875 C-32.52388479 50.97614412 -52.31965487 65.97282204 -73 79 C-74.0828125 79.70769531 -75.165625 80.41539062 -76.28125 81.14453125 C-80.72598675 83.62864387 -85.39070183 84.34746292 -90.375 85.125 C-91.385625 85.28967773 -92.39625 85.45435547 -93.4375 85.62402344 C-107.84894236 87.79519838 -122.45575806 88.34036071 -137 89 C-134.63892001 89.64539212 -132.27685081 90.28669824 -129.9140625 90.92578125 C-129.25414307 91.10661255 -128.59422363 91.28744385 -127.91430664 91.47375488 C-117.42995224 94.29943983 -106.8142349 95.32742893 -96 96 C-98.67889081 98.84402792 -101.27831255 100.93479973 -104.625 102.9375 C-109.83869394 106.17694183 -114.7935104 109.69349248 -119.75 113.3125 C-122.83041044 115.54572583 -125.91453249 117.77376797 -129 120 C-129.63953613 120.46374023 -130.27907227 120.92748047 -130.93798828 121.40527344 C-143.83624663 130.67925645 -158.06664307 137.61845422 -173 143 C-165.33442499 142.59945644 -158.1583967 141.50679383 -150.71484375 139.62109375 C-148 139 -148 139 -145 139 C-145 139.66 -145 140.32 -145 141 C-146.50390625 142.48046875 -146.50390625 142.48046875 -148.5625 144.1875 C-151.24149647 146.44398576 -153.669146 148.70342736 -156 151.3125 C-166.24224442 161.62410499 -180.73096559 167.66752316 -194 173 C-195.0003125 173.40992188 -196.000625 173.81984375 -197.03125 174.2421875 C-206.94617992 177.91754945 -217.60701246 179.27430906 -228 181 C-215.60644812 183.71482984 -202.04928762 182.65929118 -190 179 C-189.00613281 178.71382812 -188.01226562 178.42765625 -186.98828125 178.1328125 C-184.64954733 177.44782767 -182.32208353 176.73908302 -180 176 C-185.20834974 181.44778012 -191.12500293 185.41388768 -197.375 189.5625 C-197.97235962 189.96017578 -198.56971924 190.35785156 -199.18518066 190.76757812 C-216.26056078 202.08832232 -234.23725432 210.96756989 -253.09375 218.94140625 C-253.93808594 219.30588867 -254.78242188 219.67037109 -255.65234375 220.04589844 C-258 221 -258 221 -260.06640625 221.60253906 C-262.8181655 222.45990779 -264.63958031 223.4197153 -266.17382812 225.88989258 C-267.27753245 228.43410117 -268.15802945 230.9825431 -269 233.625 C-269.3304834 234.60065918 -269.6609668 235.57631836 -270.00146484 236.58154297 C-271.04120972 239.70971952 -272.02914198 242.84980334 -273 246 C-273.4645459 247.50046875 -273.4645459 247.50046875 -273.93847656 249.03125 C-281.90405082 275.20263407 -288.72567052 302.83875602 -289.69140625 330.2890625 C-289.79324219 331.18367188 -289.89507812 332.07828125 -290 333 C-290.66 333.33 -291.32 333.66 -292 334 C-292.64841644 292.71083649 -292.64841644 292.71083649 -289 274 C-288.80132324 272.97970703 -288.60264648 271.95941406 -288.39794922 270.90820312 C-280.36886043 231.04543123 -264.45976989 192.86425113 -242 159 C-241.54512207 158.30422852 -241.09024414 157.60845703 -240.62158203 156.89160156 C-231.9716483 143.68757411 -222.36725309 130.69232274 -210.85620117 119.8269043 C-209.05076913 118.04996783 -207.42112593 116.20625155 -205.78515625 114.2734375 C-202.05161126 109.97529562 -198.04005556 106.06389307 -193.875 102.1875 C-193.12710205 101.48955322 -192.3792041 100.79160645 -191.60864258 100.07250977 C-150.70473965 62.12372475 -99.03938933 30.20142283 -45 15 C-68.70569941 19.93255236 -91.34902832 29.34236485 -113 40 C-114.02722168 40.50402344 -115.05444336 41.00804687 -116.11279297 41.52734375 C-136.48665378 51.61210621 -155.83819566 63.3106352 -174 77 C-174.5765332 77.43376953 -175.15306641 77.86753906 -175.74707031 78.31445312 C-183.28324623 84.02305505 -190.4176765 90.03747058 -197.31640625 96.5 C-199.60958458 98.63629423 -201.93663261 100.70702766 -204.3125 102.75 C-210.82193427 108.42901261 -216.35397675 114.53611702 -221.765625 121.2734375 C-223.67201251 123.59976352 -225.63794618 125.80154697 -227.6875 128 C-247.8099087 150.52269601 -264.24235248 178.85705814 -274.9465332 207.0378418 C-276.81162598 211.90581299 -276.81162598 211.90581299 -279 213 C-283.47410329 191.85453566 -285.38347641 167.6695477 -278 147 C-277.75330566 146.30165039 -277.50661133 145.60330078 -277.25244141 144.88378906 C-273.13884983 133.56573046 -268.01100935 120.25176688 -259 112 C-259.0714624 112.64106689 -259.1429248 113.28213379 -259.21655273 113.94262695 C-259.97701886 121.37792675 -260.11938614 128.71791282 -260.0625 136.1875 C-260.05798828 137.33025391 -260.05347656 138.47300781 -260.04882812 139.65039062 C-260.03718268 142.4336511 -260.02082997 145.21679572 -260 148 C-259.79246094 146.96746094 -259.58492187 145.93492187 -259.37109375 144.87109375 C-254.6878395 122.31442373 -248.97908919 96.48259211 -233 79 C-232.35933594 78.23171875 -231.71867187 77.4634375 -231.05859375 76.671875 C-221.7190239 65.73271032 -209.98308348 55.96191452 -198 48 C-197.34 48 -196.68 48 -196 48 C-196.18175781 48.58265625 -196.36351562 49.1653125 -196.55078125 49.765625 C-199.61527487 59.76058882 -202.32820745 69.52930235 -203 80 C-202.74347656 79.319375 -202.48695313 78.63875 -202.22265625 77.9375 C-190.1648042 47.40718099 -171.12173687 27.56814008 -141.4765625 13.99609375 C-139 13 -139 13 -137 13 C-138.35117408 15.7237106 -139.73962591 18.42329458 -141.1640625 21.109375 C-141.56367188 21.86347656 -141.96328125 22.61757812 -142.375 23.39453125 C-142.7875 24.17183594 -143.2 24.94914062 -143.625 25.75 C-144.25535156 26.93916016 -144.25535156 26.93916016 -144.8984375 28.15234375 C-145.93187552 30.10178365 -146.96574301 32.05099451 -148 34 C-147.03809332 32.88625298 -146.07738744 31.77146879 -145.1171875 30.65625 C-144.58206543 30.03556641 -144.04694336 29.41488281 -143.49560547 28.77539062 C-142.32641156 27.38747386 -141.21385162 25.95180216 -140.125 24.5 C-137.06668981 20.90198802 -133.66843897 17.96560721 -130 15 C-128.98679687 14.17628906 -127.97359375 13.35257813 -126.9296875 12.50390625 C-95.90990034 -11.73510552 -35.76480618 -12.9710966 0 0 Z " fill="#333940" transform="translate(400,116)"/>
<path d="M0 0 C1.49697919 0.30543461 2.99435738 0.60892226 4.4921875 0.91015625 C15.95684329 3.31475784 26.94437608 7.18258726 38 11 C41.30976503 12.13320763 44.6228983 13.25603393 47.9375 14.375 C48.66445068 14.62556152 49.39140137 14.87612305 50.14038086 15.13427734 C60.97837681 18.80008885 71.77731787 19.64945283 82.515625 15.2734375 C87.96235638 12.48155946 91.26451162 9.47097675 94 4 C96.97 4 99.94 4 103 4 C103 45.58 103 87.16 103 130 C99.7 130 96.4 130 93 130 C92.77449463 129.22624023 92.54898926 128.45248047 92.31665039 127.65527344 C81.12030338 89.57246048 64.99333066 53.66816066 28.99316406 32.83886719 C25.03051006 30.68387424 20.98668522 28.73779333 16.88183594 26.87011719 C15.15438019 26.07138181 13.4543039 25.21411596 11.7578125 24.3515625 C-13.7987677 12.04191385 -51.82988147 9.78302613 -78.80517578 19.16113281 C-89.02625183 23.06765309 -98.35497249 28.27429763 -107 35 C-107.6084375 35.44472656 -108.216875 35.88945313 -108.84375 36.34765625 C-122.28714499 46.82739371 -131.91289248 66.2370481 -134 83 C-135.64590935 105.8369923 -132.91926838 127.08610859 -117.68359375 145.0703125 C-117.12800781 145.70710937 -116.57242188 146.34390625 -116 147 C-115.51660156 147.63679687 -115.03320312 148.27359375 -114.53515625 148.9296875 C-106.51933571 159.08713948 -94.39459549 165.99348931 -83.4140625 172.5390625 C-81 174 -81 174 -80 175 C-80.05391261 177.73452441 -80.17458358 180.4358307 -80.34375 183.1640625 C-80.39245239 184.00925446 -80.44115479 184.85444641 -80.49133301 185.72525024 C-80.65340761 188.48401316 -80.82508 191.24202291 -81 194 C-81.05768555 194.91052124 -81.11537109 195.82104248 -81.17480469 196.75915527 C-81.53349085 202.35074562 -81.9121248 207.94079365 -82.30224609 213.53027344 C-82.50319725 216.42099298 -82.69891219 219.31204028 -82.89453125 222.203125 C-83.02312193 224.05991771 -83.15201644 225.91668942 -83.28125 227.7734375 C-83.338573 228.62859955 -83.395896 229.4837616 -83.45495605 230.36483765 C-83.73574995 234.31852132 -84.08443267 238.13045095 -85 242 C-104.91827058 239.37603621 -126.03076315 222.56718525 -141 210 C-142.33611328 208.91138672 -142.33611328 208.91138672 -143.69921875 207.80078125 C-154.9976325 198.20511117 -163.28408929 186.10908887 -170 173 C-170.47050781 172.09636719 -170.94101562 171.19273437 -171.42578125 170.26171875 C-185.03901657 141.13866734 -183.02750273 104.40415857 -172.60229492 74.70483398 C-167.45859597 61.02120977 -159.81746151 48.8176731 -150 38 C-149.53110352 37.48195801 -149.06220703 36.96391602 -148.57910156 36.43017578 C-140.61339055 27.74523067 -132.10110851 21.03425698 -122 15 C-121.42620605 14.64599121 -120.85241211 14.29198242 -120.26123047 13.92724609 C-85.29709453 -7.44028293 -39.09062894 -8.7740199 0 0 Z " fill="#3B4149" transform="translate(702,35)"/>
<path d="M0 0 C0.00219984 1.43261217 0.00219984 1.43261217 0.00444412 2.89416599 C0.04111393 26.18262652 0.10066129 49.47094407 0.18390274 72.75928593 C0.22363426 84.02157376 0.25605661 95.28379231 0.27099609 106.54614258 C0.28404317 116.36766702 0.3110856 126.18903865 0.35461307 136.01047701 C0.37715924 141.20610147 0.3929148 146.40153793 0.39188385 151.59721565 C0.39113318 156.49828886 0.40924611 161.39894756 0.44116783 166.29991341 C0.44961182 168.08836981 0.45145466 169.87687301 0.44580269 171.66534042 C0.410817 184.44938461 0.49276086 199.25440722 9.390625 209.4296875 C20.67409089 220.43928286 36.06670778 220.8684644 51 222 C51 225.63 51 229.26 51 233 C-0.81 233 -52.62 233 -106 233 C-106 229.37 -106 225.74 -106 222 C-104.62328125 221.84144531 -103.2465625 221.68289063 -101.828125 221.51953125 C-81.94671516 219.2442793 -81.94671516 219.2442793 -66 208 C-59.03075285 197.93079551 -58.57938319 185.38455204 -58.83740234 173.59350586 C-58.85626776 172.19090269 -58.87350796 170.78827689 -58.88926697 169.38563538 C-58.92469601 166.39001835 -58.96819699 163.39466868 -59.01722336 160.39924431 C-59.0915331 155.65286127 -59.12697692 150.90666703 -59.15371704 146.1598053 C-59.15841896 145.35490581 -59.16312089 144.55000632 -59.16796529 143.72071594 C-59.17750812 142.07630396 -59.18696764 140.43189149 -59.19634557 138.78747857 C-59.26093013 127.7553088 -59.35130656 116.7248207 -59.54492188 105.6940918 C-59.67572669 98.22497844 -59.74566082 90.75796829 -59.74652636 83.28767496 C-59.74941056 79.34425341 -59.78265846 75.40651226 -59.8909111 71.46446037 C-60.52216016 47.56964484 -60.52216016 47.56964484 -56.32327843 41.62691498 C-52.37185282 37.90925702 -47.99605032 35.68930299 -42.9546833 33.78687382 C-40.40415699 32.7601385 -38.3491807 31.30504678 -36.19140625 29.6171875 C-35.57523437 29.15723389 -34.9590625 28.69728027 -34.32421875 28.22338867 C-33.74285156 27.77842041 -33.16148437 27.33345215 -32.5625 26.875 C-31.58023438 26.13117065 -31.58023438 26.13117065 -30.578125 25.37231445 C-25.12115951 21.19281167 -20.02771434 16.68471049 -15 12 C-13.56715063 10.74467179 -12.12988592 9.49435891 -10.6875 8.25 C-8.39887527 6.26652523 -6.22297349 4.24610506 -4.125 2.0625 C-2 0 -2 0 0 0 Z " fill="#282F37" transform="translate(247,282)"/>
<path d="M0 0 C12.21349168 -0.18576934 24.42664456 -0.32771441 36.64126396 -0.41449738 C42.31376094 -0.45616006 47.98528783 -0.5126254 53.65722656 -0.60351562 C59.13622626 -0.69075963 64.61429595 -0.73834116 70.09393692 -0.75901794 C72.17913572 -0.77374303 74.26428645 -0.80249879 76.34908676 -0.84584045 C94.72674647 -1.21253169 94.72674647 -1.21253169 101.23486328 3.92382812 C103.3821106 6.08215332 103.3821106 6.08215332 105 8 C105.99 8.99 105.99 8.99 107 10 C107.18769518 12.43937054 107.25198605 14.76414728 107.22705078 17.20361328 C107.22734283 17.9451767 107.22763489 18.68674011 107.22793579 19.45077515 C107.22653994 21.90740571 107.21096698 24.36373478 107.1953125 26.8203125 C107.19158327 28.52139114 107.18873587 30.22247192 107.18673706 31.92355347 C107.17909349 36.40510976 107.15943884 40.88653683 107.1373291 45.36804199 C107.11688622 49.93935396 107.10773868 54.51068677 107.09765625 59.08203125 C107.07619359 68.05474434 107.04204896 77.02736143 107 86 C105.83654053 86.58338135 104.67308105 87.1667627 103.47436523 87.76782227 C91.75175963 93.73711542 80.86981707 100.45606542 70.0625 107.9375 C68.54554438 108.97551968 67.02796715 110.01263155 65.50976562 111.04882812 C58.49052289 115.78769116 58.49052289 115.78769116 51.67749023 120.81079102 C50 122 50 122 48 122 C47.99453156 120.57751701 47.99453156 120.57751701 47.98895264 119.126297 C47.95182535 110.1385822 47.89386151 101.15120443 47.81609726 92.16374683 C47.77678212 87.54445397 47.74451607 82.92534719 47.72900391 78.3059082 C47.71373123 73.83822512 47.67910089 69.37105417 47.63169098 64.90360069 C47.61698562 63.20903695 47.6089653 61.51440005 47.60811615 59.81977272 C47.59466936 46.42597126 46.68676032 32.31305948 37 22 C26.30613526 13.48310058 13.19021194 11.36947556 0 10 C0 6.7 0 3.4 0 0 Z " fill="#3C4149" transform="translate(140,38)"/>
<path d="M0 0 C1.40942753 -0.02291492 2.81896568 -0.03907266 4.22851562 -0.05249023 C5.01343384 -0.06223373 5.79835205 -0.07197723 6.60705566 -0.08201599 C10.3815944 0.04735289 13.87135115 0.9481797 17.5 1.9375 C18.21414063 2.11990234 18.92828125 2.30230469 19.6640625 2.49023438 C24.84441361 3.84441361 24.84441361 3.84441361 26 5 C26.07179964 6.51928038 26.08392007 8.04167482 26.0625 9.5625 C26.05347656 10.38878906 26.04445313 11.21507812 26.03515625 12.06640625 C26.02355469 12.70449219 26.01195312 13.34257812 26 14 C27.299375 13.87625 27.299375 13.87625 28.625 13.75 C34.15498448 14.15962848 37.4469758 17.21594413 41.125 21.125 C52.56217628 35.08375845 50.00983367 57.23954135 48.53613281 74.0378418 C47.18495401 86.64835226 45.01281681 99.96154957 41 112 C35.25 112.125 35.25 112.125 33 111 C33.86722904 106.57203052 34.74208484 102.14889481 35.73046875 97.74609375 C38.77247699 84.17286916 40.21079229 71.27118727 40.375 57.375 C40.40102295 56.15997803 40.4270459 54.94495605 40.45385742 53.69311523 C40.47245453 44.21820726 39.38459429 34.66525159 33.6875 26.8125 C30.55847534 24.70222756 27.62722774 23.96527632 24 23 C24.01518173 23.88132599 24.03036346 24.76265198 24.04600525 25.67068481 C24.13371527 34.84780844 23.67870346 43.87578443 22.89320183 53.01672745 C22.61042952 56.31038247 22.34194813 59.60516755 22.07235432 62.89992332 C21.93006161 64.63777151 21.78710572 66.37556552 21.64350414 68.11330605 C20.86677586 77.53272307 20.16096668 86.95714482 19.46484375 96.3828125 C19.37057539 97.65792316 19.37057539 97.65792316 19.27440262 98.95879364 C18.95517602 103.28022756 18.63714506 107.60174767 18.32006836 111.92333984 C18.06519915 115.39484267 17.80829237 118.86618529 17.54956055 122.33740234 C16.04968758 142.46689381 14.65692516 162.591762 13.6493988 182.75271606 C13.61251638 183.46784992 13.57563396 184.18298378 13.5376339 184.91978836 C13.43919173 186.83399079 13.3446896 188.74839472 13.25050354 190.66281128 C13.01292283 193.82784309 12.57614488 196.88057667 12 200 C9.35409469 200.02734001 6.70848066 200.04700053 4.0625 200.0625 C2.95938477 200.07506836 2.95938477 200.07506836 1.83398438 200.08789062 C1.09599609 200.09111328 0.35800781 200.09433594 -0.40234375 200.09765625 C-1.06741943 200.10289307 -1.73249512 200.10812988 -2.41772461 200.11352539 C-4.85605119 200.00632847 -7.2370426 199.76833247 -9.66139221 199.49290466 C-10.87940946 199.3552225 -10.87940946 199.3552225 -12.12203312 199.21475887 C-13.05162673 199.10845323 -13.05162673 199.10845323 -14 199 C-13.39511774 184.90908168 -12.54615895 170.8557823 -11.4765625 156.79296875 C-11.32798887 154.81132331 -11.17966977 152.82965877 -11.03158569 150.84797668 C-10.64398712 145.67004626 -10.25302091 140.49237579 -9.86126709 135.3147583 C-9.47318735 130.17809031 -9.08828092 125.04118478 -8.703125 119.90429688 C-7.66475501 106.06522706 -6.62183936 92.22650004 -5.57589722 78.38800049 C-4.09276046 58.76264974 -2.62560506 39.13762016 -1.3125 19.5 C-1.18177688 17.5624908 -1.05091677 15.62499084 -0.91992188 13.6875 C-0.61173454 9.12510272 -0.30528533 4.56259234 0 0 Z " fill="#C7A383" transform="translate(665,121)"/>
<path d="M0 0 C8.77919333 6.34320837 14.51743498 13.41928622 17 24 C17.28948125 26.9642605 17.33446789 29.89803715 17.3125 32.875 C17.30686035 33.67147949 17.3012207 34.46795898 17.29541016 35.28857422 C17.07161287 46.10396586 13.70928496 53.20797178 6.11328125 60.9140625 C-3.59837985 69.88160811 -12.90121344 71.52549704 -25.953125 71.2734375 C-35.4590845 70.82521065 -43.28973348 66.60897948 -50 60 C-57.90948983 50.98256607 -60.75561666 41.24439391 -60.40234375 29.33203125 C-58.95720271 17.36401859 -52.94254377 8.50142266 -43.62890625 1.12109375 C-30.87448713 -7.80484881 -13.43174519 -7.76297101 0 0 Z " fill="#242A31" transform="translate(157,635)"/>
<path d="M0 0 C0.69931641 0.00644531 1.39863281 0.01289062 2.11914062 0.01953125 C2.82361328 0.03628906 3.52808594 0.05304688 4.25390625 0.0703125 C5.3512207 0.08384766 5.3512207 0.08384766 6.47070312 0.09765625 C8.25274923 0.12095097 10.03462384 0.1568106 11.81640625 0.1953125 C11.92619849 8.59743923 11.60992766 16.9016523 11.01171875 25.28125 C10.92767792 26.49946442 10.84363708 27.71767883 10.75704956 28.97280884 C10.57909637 31.53946421 10.39914454 34.10598172 10.21728516 36.67236328 C9.94463164 40.5247403 9.67881259 44.3775414 9.4140625 48.23046875 C8.56801843 60.41221863 7.63514094 72.57648207 6.48744202 84.73356628 C5.75314216 92.61047084 5.28573188 100.48247382 4.87890625 108.3828125 C4.19622172 120.96728811 3.24659204 133.51033324 2.12094116 146.06243896 C1.03649245 158.17401696 0.17078783 170.28713537 -0.53710938 182.42651367 C-0.60865234 183.6251001 -0.68019531 184.82368652 -0.75390625 186.05859375 C-0.81336426 187.10313721 -0.87282227 188.14768066 -0.93408203 189.22387695 C-1.18672748 192.2326321 -1.68721668 195.21705008 -2.18359375 198.1953125 C-9.11359375 198.1953125 -16.04359375 198.1953125 -23.18359375 198.1953125 C-23.32944375 188.23110592 -22.85670728 178.50466772 -22.01583862 168.5859375 C-20.68795017 152.86793047 -19.65834703 137.15059124 -18.91845703 121.39428711 C-18.53262767 113.40260242 -17.97335186 105.44546243 -17.25390625 97.4765625 C-16.10051359 84.69344115 -15.22401106 71.89562181 -14.37866211 59.08886719 C-14.12137821 55.19961263 -13.85876207 51.31074273 -13.59570312 47.421875 C-12.58745419 32.35218632 -11.7553133 17.28796742 -11.18359375 2.1953125 C-3.78125 -0.0625 -3.78125 -0.0625 0 0 Z " fill="#2F373E" transform="translate(647.18359375,120.8046875)"/>
<path d="M0 0 C10.085625 -0.12375 10.085625 -0.12375 20.375 -0.25 C22.47665527 -0.28641602 24.57831055 -0.32283203 26.74365234 -0.36035156 C28.4410704 -0.37205244 30.13849982 -0.38224094 31.8359375 -0.390625 C32.6916333 -0.41108887 33.5473291 -0.43155273 34.42895508 -0.45263672 C41.79894169 -0.45682065 48.58066863 1.29302933 54.4375 5.9296875 C60.45378904 13.41996735 61.68615887 19.45095576 61 29 C60.25 32.25 60.25 32.25 59 35 C58.505 36.155 58.01 37.31 57.5 38.5 C54.71860064 43.30326274 49.77893139 45.51021323 45 48 C46.61257612 53.31201545 50.05148484 57.21474802 53.4375 61.5 C60.52486505 70.52878848 60.52486505 70.52878848 63 75 C58.11752829 75.82312563 53.85980371 76.05801977 49 75 C43.75487573 70.48890807 40.29846583 64.69311431 37.3125 58.5 C35.45340192 54.91951481 34.12372724 52.58393301 31 50 C24.40115775 48.25003078 17.79024208 48.82130942 11 49 C11 57.25 11 65.5 11 74 C7.37 74 3.74 74 0 74 C0 49.58 0 25.16 0 0 Z " fill="#1D242C" transform="translate(724,631)"/>
<path d="M0 0 C6.55875 -0.0825 13.1175 -0.165 19.875 -0.25 C22.94917236 -0.30462402 22.94917236 -0.30462402 26.08544922 -0.36035156 C45.35700259 -0.56418908 45.35700259 -0.56418908 53.65625 6.1484375 C59.34402873 13.01715333 61.57099867 18.11740472 61.375 27.12109375 C60.40945449 34.53366706 56.54079801 40.17855013 50.94140625 44.94140625 C48.36309814 46.34728452 45.89263163 46.6379125 43 47 C43.3623877 47.49814209 43.72477539 47.99628418 44.09814453 48.50952148 C45.77558169 50.81753198 47.45029836 53.12750393 49.125 55.4375 C49.69476563 56.22060547 50.26453125 57.00371094 50.8515625 57.81054688 C54.69965524 63.12353856 58.4020972 68.51455175 62 74 C57.11723683 74.82317477 52.8593135 75.06297483 48 74 C42.8461957 69.50442614 39.43950926 63.73865821 36.27734375 57.72265625 C34.38475784 54.44188659 33.02272186 52.31200932 30 50 C23.71735229 48.39482186 17.46017396 48.86541304 11 49 C11 57.25 11 65.5 11 74 C7.37 74 3.74 74 0 74 C0 49.58 0 25.16 0 0 Z " fill="#212830" transform="translate(13,631)"/>
<path d="M0 0 C5.94 0 11.88 0 18 0 C18 25.08 18 50.16 18 76 C14.04 76 10.08 76 6 76 C5.67 57.19 5.34 38.38 5 19 C-6.85933642 44.84368698 -6.85933642 44.84368698 -18 71 C-20.64 71 -23.28 71 -26 71 C-30.8148868 60.70564444 -35.6146231 50.40435197 -40.36401367 40.07958984 C-41.09003309 38.5040435 -41.81828561 36.92952456 -42.54858398 35.35595703 C-43.61979148 33.04703066 -44.68369946 30.73486718 -45.74609375 28.421875 C-46.07411484 27.7188324 -46.40213593 27.01578979 -46.74009705 26.29144287 C-48.08378826 23.34858891 -49 21.27492612 -49 18 C-49.66 18 -50.32 18 -51 18 C-51 36.81 -51 55.62 -51 75 C-54.63 75 -58.26 75 -62 75 C-62 50.58 -62 26.16 -62 1 C-56.06 1 -50.12 1 -44 1 C-42.74905165 3.77040835 -41.49909952 6.54125791 -40.25 9.3125 C-39.85748047 10.18302002 -39.46496094 11.05354004 -39.06054688 11.95043945 C-36.61038298 17.39372282 -34.17913642 22.8450602 -31.765625 28.3046875 C-31.49429749 28.9178331 -31.22296997 29.5309787 -30.94342041 30.16270447 C-29.59269607 33.2151151 -28.24425163 36.26847324 -26.89941406 39.32348633 C-26.16029785 40.99447388 -26.16029785 40.99447388 -25.40625 42.69921875 C-24.74592773 44.19714966 -24.74592773 44.19714966 -24.07226562 45.7253418 C-23.19586039 47.91683863 -23.19586039 47.91683863 -22 49 C-14.48430466 32.74491968 -7.16638708 16.41199672 0 0 Z " fill="#21282F" transform="translate(875,630)"/>
<path d="M0 0 C4.62 0 9.24 0 14 0 C21.59643734 16.63256927 29.06161869 33.31144927 36.25 50.125 C36.57541779 50.88583893 36.90083557 51.64667786 37.2361145 52.43057251 C38.16390419 54.60160685 39.09027455 56.77323747 40.015625 58.9453125 C40.28900192 59.58676712 40.56237885 60.22822174 40.84403992 60.88911438 C41.56697687 62.59092959 42.28372621 64.29536962 43 66 C43.5873291 67.36294189 43.5873291 67.36294189 44.18652344 68.75341797 C45 71 45 71 45 74 C41.04 74 37.08 74 33 74 C30.69 69.05 28.38 64.1 26 59 C13.13 59 0.26 59 -13 59 C-15.97 65.93 -15.97 65.93 -19 73 C-20 74 -20 74 -22.72265625 74.09765625 C-23.82480469 74.08605469 -24.92695312 74.07445312 -26.0625 74.0625 C-27.16722656 74.05347656 -28.27195312 74.04445313 -29.41015625 74.03515625 C-30.26480469 74.02355469 -31.11945312 74.01195312 -32 74 C-29.88858807 67.17488452 -27.22946189 60.70400255 -24.3125 54.1875 C-23.6174939 52.62189331 -23.6174939 52.62189331 -22.90844727 51.0246582 C-21.86748477 48.68101992 -20.82464724 46.33821387 -19.78027344 43.99609375 C-17.77595096 39.50060785 -15.78281323 35.00018181 -13.7890625 30.5 C-12.33893306 27.22899302 -10.88827585 23.95822033 -9.4375 20.6875 C-9.08257477 19.8870224 -8.72764954 19.0865448 -8.36196899 18.2618103 C-7.34519457 15.96965971 -6.3270958 13.67810212 -5.30859375 11.38671875 C-5.00382111 10.69920532 -4.69904846 10.01169189 -4.38504028 9.30334473 C-2.98740767 6.16233763 -1.53819066 3.07638133 0 0 Z " fill="#20272F" transform="translate(951,631)"/>
<path d="M0 0 C1.79244141 0.01740234 1.79244141 0.01740234 3.62109375 0.03515625 C5.41740234 0.04869141 5.41740234 0.04869141 7.25 0.0625 C8.17683594 0.07410156 9.10367188 0.08570313 10.05859375 0.09765625 C14.47775699 8.55232547 18.43435141 17.12492679 22.14038086 25.9128418 C24.67765411 31.91374491 27.28219589 37.880916 29.93359375 43.83203125 C30.27237549 44.5937262 30.61115723 45.35542114 30.96020508 46.14019775 C32.33226511 49.22441148 33.70449331 52.3085001 35.08642578 55.38830566 C36.06078012 57.56029403 37.02891877 59.73496349 37.99609375 61.91015625 C38.43767822 62.88707428 38.43767822 62.88707428 38.88818359 63.88372803 C40.43340823 67.37412453 41.29801386 70.29475681 42.05859375 74.09765625 C37.76859375 74.09765625 33.47859375 74.09765625 29.05859375 74.09765625 C27.07859375 69.14765625 25.09859375 64.19765625 23.05859375 59.09765625 C10.18859375 59.09765625 -2.68140625 59.09765625 -15.94140625 59.09765625 C-18.91140625 66.02765625 -18.91140625 66.02765625 -21.94140625 73.09765625 C-22.94140625 74.09765625 -22.94140625 74.09765625 -25.6640625 74.1953125 C-26.76621094 74.18371094 -27.86835937 74.17210937 -29.00390625 74.16015625 C-30.10863281 74.15113281 -31.21335937 74.14210938 -32.3515625 74.1328125 C-33.20621094 74.12121094 -34.06085937 74.10960937 -34.94140625 74.09765625 C-32.60033536 66.51322794 -29.49398385 59.4335157 -26.19140625 52.22265625 C-20.15884431 38.95418438 -14.39302156 25.5796365 -8.70410156 12.16064453 C-8.39315552 11.42953461 -8.08220947 10.69842468 -7.76184082 9.94515991 C-7.1756142 8.56653983 -6.59145035 7.18704023 -6.00964355 5.80654907 C-3.58967857 0.11917924 -3.58967857 0.11917924 0 0 Z " fill="#222930" transform="translate(656.94140625,630.90234375)"/>
<path d="M0 0 C1.8896347 -0.00810448 1.8896347 -0.00810448 3.81744385 -0.01637268 C7.24960343 -0.030248 10.68125718 -0.01921221 14.1133883 -0.00266147 C17.7232343 0.01127917 21.33305359 0.00471842 24.94291687 0.00120544 C31.00613463 -0.00149065 37.06915376 0.01192334 43.13232422 0.03515625 C50.11411867 0.06172623 57.09558049 0.06352233 64.07740813 0.05176789 C70.82477728 0.04093561 77.57202765 0.04722198 84.31938744 0.06132317 C87.17594442 0.0670396 90.03241322 0.0670348 92.88897133 0.06225777 C96.89230622 0.05653736 100.89515741 0.07593671 104.8984375 0.09765625 C106.64993355 0.09090378 106.64993355 0.09090378 108.43681335 0.08401489 C130.095878 0.27802466 147.72001929 9.98231085 162.9831543 24.71264648 C164.14331055 26.50170898 164.14331055 26.50170898 163.8347168 28.72827148 C163.60655273 29.31350586 163.37838867 29.89874023 163.14331055 30.50170898 C161.14331055 30.50170898 161.14331055 30.50170898 159.01831055 28.43920898 C158.57100586 27.98030273 158.12370117 27.52139648 157.6628418 27.04858398 C150.78509781 20.04707597 143.06122985 14.63165892 134.14331055 10.50170898 C133.06152527 9.98380043 133.06152527 9.98380043 131.95788574 9.45542908 C121.23488291 5.12420441 110.02889112 6.00067024 98.65893555 6.11108398 C96.38922629 6.11855578 94.11951053 6.12424427 91.84979248 6.12823486 C85.91168012 6.14341717 79.97396679 6.18263465 74.03601074 6.22705078 C67.96245723 6.26816394 61.88883847 6.28628001 55.81518555 6.30639648 C43.92438642 6.34913649 32.03388182 6.41729724 20.14331055 6.50170898 C21.1485376 7.02337646 22.15376465 7.54504395 23.18945312 8.08251953 C24.53488908 8.78838933 25.88017744 9.4945405 27.2253418 10.20092773 C27.88473755 10.54216675 28.5441333 10.88340576 29.22351074 11.23498535 C40.24943481 17.04791489 49.41277244 25.36237255 58.42260742 33.87817383 C60.35852039 35.70476594 62.30530542 37.51938032 64.25268555 39.33374023 C71.75523148 46.34031955 79.16126065 53.4116163 86.3347168 60.75561523 C88.38752797 62.76274494 90.42680885 64.61394282 92.6081543 66.46655273 C99.79552869 72.69097663 106.33434676 79.64009231 113.01635742 86.39526367 C114.84820808 88.24537517 116.68319362 90.0923381 118.51831055 91.93920898 C119.06438965 92.49358643 119.61046875 93.04796387 120.1730957 93.61914062 C123.02346641 96.48713806 125.91933195 99.14332107 129.05102539 101.70239258 C132.30769502 104.48322472 134.49001767 107.36711471 136.82543945 110.94946289 C143.05007625 119.72909393 149.66319999 126.79145275 160.65490723 128.67004395 C175.59084867 130.46100334 190.80244816 129.61606457 205.79150391 129.0123291 C212.03863037 128.78499345 218.28774903 128.6863243 224.5378418 128.57592773 C236.74486913 128.34178329 248.94308231 127.96767158 261.14331055 127.50170898 C258.16001035 124.49339402 255.17321313 121.48860504 252.18334961 118.48681641 C251.17004903 117.46853607 250.15765343 116.44935424 249.14624023 115.42919922 C243.83944662 110.07774447 238.52380445 104.79038821 232.77626038 99.90513611 C226.18763668 94.2425903 220.21480128 87.7574265 214.58081055 81.16186523 C212.86150411 79.17625318 211.03766056 77.32028499 209.14331055 75.50170898 C209.47331055 74.51170898 209.80331055 73.52170898 210.14331055 72.50170898 C214.69150431 73.92027652 217.49823364 76.44517677 220.75976562 79.77758789 C221.29694214 80.31432632 221.83411865 80.85106476 222.38757324 81.40406799 C224.15320471 83.17178178 225.90798444 84.94986695 227.6628418 86.72827148 C228.88815279 87.95918039 230.11412983 89.18942661 231.34074402 90.41903687 C234.56136003 93.65108615 237.77286356 96.89204412 240.98254395 100.13494873 C244.26179008 103.44492829 247.54958597 106.74639116 250.83666992 110.04858398 C257.28060684 116.52465829 263.71494783 123.01017753 270.14331055 129.50170898 C269.81331055 130.49170898 269.48331055 131.48170898 269.14331055 132.50170898 C254.68133466 133.40180083 240.22317036 134.06514163 225.73860741 134.47057152 C219.00548728 134.66417188 212.29360466 134.93080108 205.57055664 135.3684082 C157.94394347 138.38803675 157.94394347 138.38803675 141.17163086 124.11987305 C132.7489893 116.45976833 125.42943163 107.82152362 118.58169556 98.74697876 C115.70675363 95.01724237 112.53806882 91.98967776 108.92174339 88.98360252 C106.40571908 86.88710494 104.12919832 84.58226703 101.83081055 82.25170898 C101.37279053 81.78990234 100.91477051 81.3280957 100.44287109 80.85229492 C98.52689138 78.92031333 96.6170989 76.98226114 94.70678711 75.04467773 C89.61132707 69.88313323 84.4899609 64.82827344 78.9753418 60.11108398 C75.88033337 57.39222797 73.02396486 54.44388788 70.14331055 51.50170898 C65.94574423 47.260314 61.74443044 43.11202129 57.1784668 39.26342773 C55.05259835 37.4231846 53.01967621 35.49768072 50.98071289 33.56225586 C34.52192355 18.06791047 13.35323833 4.95205744 -9.8762207 5.15405273 C-14.41061049 5.68296583 -17.53903221 7.41025564 -20.85668945 10.50170898 C-22.64631765 13.12028593 -22.64631765 13.12028593 -23.85668945 15.50170898 C-24.84668945 15.83170898 -25.83668945 16.16170898 -26.85668945 16.50170898 C-27.32738979 12.54782617 -27.04503705 10.80549543 -24.91918945 7.37670898 C-18.13867875 0.16710007 -9.31957174 -0.07676451 0 0 Z " fill="#343C43" transform="translate(455.856689453125,310.498291015625)"/>
<path d="M0 0 C13.00396379 0.60274783 26.00343194 1.2541652 39 2 C39.05534912 2.60473145 39.11069824 3.20946289 39.16772461 3.83251953 C39.42203865 6.59689466 39.67974082 9.36094407 39.9375 12.125 C40.06801758 13.55199219 40.06801758 13.55199219 40.20117188 15.0078125 C40.71636721 20.50322936 41.39780068 25.8947461 42.44921875 31.31640625 C43.06822364 37.15128841 41.53754276 40.1903432 37.9375 44.75 C37.03147288 45.83221788 36.125206 46.91423507 35.21875 47.99609375 C30.30573642 53.92272971 26.18896772 60.44440652 21.91577148 66.83691406 C20.98099976 68.22668457 20.98099976 68.22668457 20.02734375 69.64453125 C19.46781006 70.48346924 18.90827637 71.32240723 18.33178711 72.18676758 C17.89229736 72.78513428 17.45280762 73.38350098 17 74 C16.67 74 16.34 74 16 74 C16 66.08 16 58.16 16 50 C14.3272012 59.0331135 13.47546512 67.84104033 13 77 C10.98784189 73.98176284 9.48523159 70.98509834 7.91796875 67.71484375 C7.62191238 67.09912003 7.32585602 66.4833963 7.02082825 65.84901428 C6.07425778 63.87952272 5.13072273 61.90859674 4.1875 59.9375 C3.25725787 57.99741895 2.32636153 56.05765958 1.39407349 54.11856079 C0.78685747 52.85327896 0.18208344 51.58682219 -0.42019653 50.31918335 C-1.74933045 47.53316983 -3.11522762 44.78977557 -4.59912109 42.08251953 C-7.44481263 36.88787833 -8.65230392 33.96356751 -7 28 C-6.71382812 26.75863281 -6.42765625 25.51726562 -6.1328125 24.23828125 C-5.80047882 22.92876763 -5.46443498 21.6201909 -5.125 20.3125 C-4.76819314 18.9127696 -4.41142271 17.51302991 -4.0546875 16.11328125 C-3.87776367 15.42443848 -3.70083984 14.7355957 -3.51855469 14.02587891 C-2.74928507 11.02051199 -1.99988508 8.01025296 -1.25 5 C-0.625 2.5 -0.625 2.5 0 0 Z " fill="#1F262F" transform="translate(630,325)"/>
<path d="M0 0 C6.94367819 3.18189964 11.29598662 8.09070298 14.5625 14.875 C17.01753847 22.37282018 16.81410188 32.29859858 13.5 39.4375 C10.11297396 45.1811329 5.17542003 50.00315727 -1.16015625 52.40234375 C-8.72667867 53.97275406 -17.94803378 54.45129399 -24.73046875 50.26953125 C-30.64170605 45.44044266 -35.47902469 39.63502049 -36.76928711 31.88110352 C-37.46959343 23.51219469 -37.34372464 15.92554234 -32.2890625 8.89453125 C-29.34186094 5.67996752 -26.17525725 3.11462782 -22.4375 0.875 C-21.83679688 0.49988281 -21.23609375 0.12476563 -20.6171875 -0.26171875 C-14.63226713 -2.63209044 -6.06255531 -2.01291129 0 0 Z " fill="#FCFCFC" transform="translate(146.4375,642.125)"/>
<path d="M0 0 C3.96 0 7.92 0 12 0 C12 10.56 12 21.12 12 32 C24.54 32 37.08 32 50 32 C50 21.44 50 10.88 50 0 C53.63 0 57.26 0 61 0 C61 24.75 61 49.5 61 75 C57.04 75 53.08 75 49 75 C49 64.44 49 53.88 49 43 C36.79 43 24.58 43 12 43 C12 53.56 12 64.12 12 75 C8.04 75 4.08 75 0 75 C0 50.25 0 25.5 0 0 Z " fill="#262C34" transform="translate(536,631)"/>
<path d="M0 0 C3.96 0 7.92 0 12 0 C12 10.56 12 21.12 12 32 C24.54 32 37.08 32 50 32 C50 21.44 50 10.88 50 0 C53.63 0 57.26 0 61 0 C61 24.42 61 48.84 61 74 C57.37 74 53.74 74 50 74 C50 63.77 50 53.54 50 43 C37.46 43 24.92 43 12 43 C12 53.56 12 64.12 12 75 C8.04 75 4.08 75 0 75 C0 50.25 0 25.5 0 0 Z " fill="#262C34" transform="translate(201,631)"/>
<path d="M0 0 C2.12029221 1.40245034 4.17107709 2.84137517 6.1796875 4.3984375 C4.86722212 7.83937936 3.51379883 10.53384632 1.1796875 13.3984375 C-1.77392007 12.76410567 -4.21056974 11.79891925 -6.8828125 10.3984375 C-11.43333357 8.0227336 -15.03495078 7.19811928 -20.1953125 7.0859375 C-21.31679688 7.04855469 -22.43828125 7.01117187 -23.59375 6.97265625 C-27.51216982 7.48973586 -29.11266523 8.55640332 -31.8203125 11.3984375 C-32.74059406 14.17010901 -32.51828733 16.57745588 -31.8203125 19.3984375 C-28.58633288 23.38701236 -24.34024411 24.30475107 -19.5703125 25.625 C-8.82440467 28.64728658 0.43662137 32.20334732 7.1796875 41.3984375 C9.51983192 46.07872634 8.85385285 52.80483324 7.56640625 57.7578125 C4.61071262 64.47648173 -1.30555514 68.41417237 -7.8203125 71.3984375 C-19.18361715 74.16997522 -30.65733788 72.40264251 -40.83203125 66.71484375 C-47.34328433 62.39568158 -47.34328433 62.39568158 -48.76953125 59.4140625 C-48.84080192 56.58516511 -47.79345094 55.6760538 -45.8828125 53.6484375 C-45.31691406 53.03484375 -44.75101562 52.42125 -44.16796875 51.7890625 C-43.50087891 51.10070312 -43.50087891 51.10070312 -42.8203125 50.3984375 C-39.45262119 51.99016906 -36.65255143 53.93213966 -33.69921875 56.1796875 C-28.97028846 59.24710174 -24.92049663 59.69413695 -19.3203125 59.7109375 C-17.38671875 59.73607422 -17.38671875 59.73607422 -15.4140625 59.76171875 C-11.66050604 59.38228315 -9.78706066 58.67331342 -6.8203125 56.3984375 C-5.25330808 53.26442865 -4.96866689 49.76688655 -5.8203125 46.3984375 C-9.89992201 41.97677484 -15.01903501 40.90205413 -20.6328125 39.3984375 C-37.94554479 34.69908287 -37.94554479 34.69908287 -42.2578125 28.2734375 C-42.96744141 27.24863281 -42.96744141 27.24863281 -43.69140625 26.203125 C-46.78550077 21.25685624 -46.44908998 16.09316085 -45.8203125 10.3984375 C-43.19813799 3.47001949 -37.95625124 -0.78271803 -31.6953125 -4.4140625 C-21.48713613 -8.30928769 -9.16005388 -5.20169265 0 0 Z " fill="#242A32" transform="translate(501.8203125,634.6015625)"/>
<path d="M0 0 C0.80759766 -0.00773437 1.61519531 -0.01546875 2.44726562 -0.0234375 C9.57205259 -0.00047284 15.8782252 1.28134444 22.4375 4.1875 C23.54738281 4.66509766 23.54738281 4.66509766 24.6796875 5.15234375 C26.5625 6.25 26.5625 6.25 28.5625 9.25 C28.78955078 11.7019043 28.78955078 11.7019043 28.7578125 14.57421875 C28.75136719 15.60224609 28.74492188 16.63027344 28.73828125 17.68945312 C28.72152344 18.76130859 28.70476563 19.83316406 28.6875 20.9375 C28.67847656 22.02095703 28.66945313 23.10441406 28.66015625 24.22070312 C28.6365734 26.8973571 28.60366126 29.57356797 28.5625 32.25 C26.35404015 31.93839539 24.14573749 31.62567654 21.9375 31.3125 C20.70773437 31.13847656 19.47796875 30.96445313 18.2109375 30.78515625 C16.07498589 30.47185286 13.94217425 30.13062156 11.82226562 29.72265625 C8.11495954 29.18510797 4.49314115 29.12443809 0.7578125 29.15234375 C-0.3281572 29.15446617 -0.3281572 29.15446617 -1.43606567 29.15663147 C-3.72825407 29.16218925 -6.02034157 29.17473367 -8.3125 29.1875 C-9.87499858 29.19252047 -11.43749871 29.19708241 -13 29.20117188 C-16.81253835 29.21214481 -20.62500212 29.2293799 -24.4375 29.25 C-24.45444649 27.01174503 -24.46652979 24.77345289 -24.4765625 22.53515625 C-24.48381348 21.28871338 -24.49106445 20.04227051 -24.49853516 18.75805664 C-24.39499813 12.80716258 -23.97445936 8.89418908 -19.75 4.375 C-13.42112279 0.31496556 -7.29269399 -0.06950939 0 0 Z " fill="#343C44" transform="translate(662.4375,85.75)"/>
<path d="M0 0 C18.81 0 37.62 0 57 0 C57 3.63 57 7.26 57 11 C49.41 11 41.82 11 34 11 C34 31.79 34 52.58 34 74 C30.37 74 26.74 74 23 74 C23 53.21 23 32.42 23 11 C15.41 11 7.82 11 0 11 C0 7.37 0 3.74 0 0 Z " fill="#1E252C" transform="translate(333,631)"/>
<path d="M0 0 C14.62328966 4.88924578 26.94566318 14.02510035 38.52050781 23.93554688 C41.07811918 26.12367756 43.66882255 28.27102181 46.2578125 30.421875 C45.5978125 31.081875 44.9378125 31.741875 44.2578125 32.421875 C41.2578125 32.421875 41.2578125 32.421875 37.9453125 30.609375 C27.00732698 25.06225377 13.94309614 24.70376343 1.94018555 23.59936523 C-14.2188956 22.0082492 -14.2188956 22.0082492 -19.2421875 16.859375 C-21.76777215 12.75529994 -22.15660511 10.31200274 -21.7421875 5.421875 C-16.60568917 -2.4540891 -8.65181934 -1.82403029 0 0 Z " fill="#3B4148" transform="translate(462.7421875,322.578125)"/>
<path d="M0 0 C4.49625 -0.061875 8.9925 -0.12375 13.625 -0.1875 C15.03217285 -0.21481201 16.4393457 -0.24212402 17.88916016 -0.27026367 C19.01112793 -0.27775635 20.1330957 -0.28524902 21.2890625 -0.29296875 C23.00150146 -0.31653442 23.00150146 -0.31653442 24.74853516 -0.34057617 C29.54620239 0.16195768 32.80924879 1.93459103 36.375 5.125 C38.65554899 9.15981744 38.64865986 12.4673891 38 17 C36.22907026 22.21440424 33.75341032 24.32620669 29 27 C25.76248322 28.07917226 23.42248229 28.11425601 20.01953125 28.09765625 C18.97128174 28.09515869 17.92303223 28.09266113 16.84301758 28.09008789 C15.51294678 28.08098389 14.18287598 28.07187988 12.8125 28.0625 C8.584375 28.041875 4.35625 28.02125 0 28 C0 18.76 0 9.52 0 0 Z " fill="#F8F9F9" transform="translate(735,642)"/>
<path d="M0 0 C4.54202541 -0.08100045 9.08260304 -0.14050969 13.625 -0.1875 C15.55279297 -0.22520508 15.55279297 -0.22520508 17.51953125 -0.26367188 C19.38544922 -0.27817383 19.38544922 -0.27817383 21.2890625 -0.29296875 C23.00150146 -0.31653442 23.00150146 -0.31653442 24.74853516 -0.34057617 C29.86087229 0.19491792 33.0313721 1.87843085 36.375 5.75 C38.29553488 9.59106976 38.53077531 11.75379753 38 16 C36.21148091 20.42871394 34.35287518 23.51637016 30.30957031 26.06591797 C27.26452328 27.29745602 24.76532361 27.22513931 21.484375 27.1953125 C19.60878906 27.18564453 19.60878906 27.18564453 17.6953125 27.17578125 C16.39335938 27.15902344 15.09140625 27.14226563 13.75 27.125 C12.43257812 27.11597656 11.11515625 27.10695313 9.7578125 27.09765625 C6.50513084 27.07408609 3.25254256 27.03821525 0 27 C0 18.09 0 9.18 0 0 Z " fill="#FAFAFB" transform="translate(24,642)"/>
<path d="M0 0 C3.81271791 3.17726492 7.45516471 6.399999 10.9375 9.9375 C13.45783276 12.4963847 16.01498505 14.92268914 18.75 17.25 C22.86361544 20.78058333 26.65503712 24.59446024 30.43652344 28.47363281 C33.10675644 31.19099824 35.83888419 33.71335288 38.76985168 36.14900208 C42.34899851 39.26515491 45.19100378 42.58544907 48.04650688 46.36192131 C58.91572519 60.66115604 71.61757532 76.26179467 90.07538033 79.66462898 C104.95723362 81.57722429 119.98692711 80.83509425 134.9230957 80.00415039 C141.49167152 79.68048383 148.06385122 79.57645246 154.63867188 79.45117188 C167.43757407 79.17625807 180.21624884 78.67507986 193 78 C193 79.32 193 80.64 193 82 C174.76710991 83.33939248 156.52472189 84.24768705 138.25 84.75 C137.25174611 84.77796842 137.25174611 84.77796842 136.23332548 84.80650187 C76.26387177 86.43137002 76.26387177 86.43137002 57.56619263 69.57821655 C49.46985256 61.79652589 42.76284863 52.50121261 37.12231445 42.83374023 C34.58438568 38.58950495 31.74504384 35.6149212 27.89555359 32.53199768 C24.50799302 29.79415109 21.54594133 26.60643827 18.5 23.5 C13.9713662 18.92202613 9.4322686 14.4460709 4.5078125 10.2890625 C2.56653496 8.62942108 0.80503139 6.80503139 -1 5 C-1.99 4.34 -2.98 3.68 -4 3 C-2.68 3 -1.36 3 0 3 C0 2.01 0 1.02 0 0 Z " fill="#353C44" transform="translate(527,371)"/>
<path d="M0 0 C3.96 0 7.92 0 12 0 C12 24.42 12 48.84 12 74 C8.04 74 4.08 74 0 74 C0 49.58 0 25.16 0 0 Z " fill="#23292F" transform="translate(295,631)"/>
<path d="M0 0 C5.47523375 0.51653149 8.78336411 3.55383296 12.4375 7.4375 C23.87467628 21.39625845 21.32233367 43.55204135 19.84863281 60.3503418 C18.49745401 72.96085226 16.32531681 86.27404957 12.3125 98.3125 C6.5625 98.4375 6.5625 98.4375 4.3125 97.3125 C5.17972904 92.88453052 6.05458484 88.46139481 7.04296875 84.05859375 C10.08497699 70.48536916 11.52329229 57.58368727 11.6875 43.6875 C11.71352295 42.47247803 11.7395459 41.25745605 11.76635742 40.00561523 C11.78483848 30.5898351 10.78985242 20.88796371 4.9375 13.1875 C2.17074791 11.21124851 -0.57904934 9.68600145 -3.6875 8.3125 C-3.72991723 5.97955225 -3.72842937 3.64547433 -3.6875 1.3125 C-2.6875 0.3125 -2.6875 0.3125 0 0 Z " fill="#383E44" transform="translate(693.6875,134.6875)"/>
<path d="M0 0 C4.54819376 1.41856754 7.35492309 3.94346779 10.61645508 7.27587891 C11.15363159 7.81261734 11.69080811 8.34935577 12.2442627 8.90235901 C14.00989416 10.67007279 15.76467389 12.44815796 17.51953125 14.2265625 C18.74484224 15.45747141 19.97081928 16.68771762 21.19743347 17.91732788 C24.41804949 21.14937717 27.62955302 24.39033513 30.8392334 27.63323975 C34.11847954 30.94321931 37.40627542 34.24468218 40.69335938 37.546875 C47.1372963 44.02294931 53.57163729 50.50846854 60 57 C59.67 57.99 59.34 58.98 59 60 C20.72 60 -17.56 60 -57 60 C-56.67 59.01 -56.34 58.02 -56 57 C-20.03 57 15.94 57 53 57 C53 56.34 53 55.68 53 55 C52.43249023 54.75918701 51.86498047 54.51837402 51.28027344 54.27026367 C48.53999364 52.74374592 46.70960709 50.91799033 44.515625 48.67578125 C43.23558594 47.37930664 43.23558594 47.37930664 41.9296875 46.05664062 C41.04539062 45.15107422 40.16109375 44.24550781 39.25 43.3125 C33.90446158 37.85989219 28.57037752 32.50431871 22.76904297 27.53540039 C16.15363046 21.79370438 10.11997189 15.31247311 4.4375 8.66015625 C2.71819357 6.6745442 0.89435001 4.81857601 -1 3 C-0.67 2.01 -0.34 1.02 0 0 Z " fill="#1A222A" transform="translate(666,383)"/>
<path d="M0 0 C71.94 0 143.88 0 218 0 C218 0.33 218 0.66 218 1 C207.0278311 2.39744005 195.96578175 2.22660162 184.92578125 2.31640625 C182.78915536 2.33700895 180.65253324 2.35800622 178.51591492 2.37937927 C172.92488686 2.43425782 167.33382413 2.48381628 161.74273682 2.53222656 C156.02442381 2.58269334 150.30616041 2.63824725 144.58789062 2.69335938 C133.39196958 2.80052166 122.19600524 2.90205762 111 3 C110.38130554 4.89652635 110.38130554 4.89652635 110 7 C111.18397278 9.14915994 111.18397278 9.14915994 112.9375 11.125 C116 14.82232346 116 14.82232346 116 17 C113.36 17 110.72 17 108 17 C108 39.77 108 62.54 108 86 C107.67 86 107.34 86 107 86 C107.00785522 84.61390785 107.00785522 84.61390785 107.01586914 83.19981384 C107.05821888 74.47499591 107.06215234 65.75117738 107.02334595 57.02632809 C107.00474027 52.54104936 107.00079057 48.05677126 107.03076172 43.5715332 C107.05916146 39.2397015 107.04850496 34.90953784 107.01119995 30.57779121 C107.00377521 28.9284658 107.01022958 27.27901549 107.03103638 25.62980461 C107.40181809 16.61149684 107.40181809 16.61149684 104.2578125 8.45828247 C102.2492775 6.66767789 100.34143011 5.31280163 98 4 C97.01 3.34 96.02 2.68 95 2 C91.95071559 1.78596616 88.98981561 1.68866309 85.9387207 1.68115234 C85.01169342 1.67110672 84.08466614 1.6610611 83.12954712 1.65071106 C80.06163154 1.61978989 76.99380358 1.60281907 73.92578125 1.5859375 C71.80013775 1.56723304 69.67450173 1.54766018 67.5488739 1.5272522 C61.9511658 1.47584871 56.35343361 1.43626696 50.75561523 1.39910889 C45.04469808 1.35912072 39.33388186 1.30800475 33.62304688 1.2578125 C22.41543541 1.16095593 11.20776705 1.0765823 0 1 C0 0.67 0 0.34 0 0 Z " fill="#BFB2A5" transform="translate(140,37)"/>
<path d="M0 0 C13.51755937 -0.06963256 27.03507578 -0.12287866 40.55277824 -0.15543652 C46.830172 -0.17106577 53.10744269 -0.19225418 59.38476562 -0.22631836 C65.44722828 -0.25900923 71.50957283 -0.27687361 77.57211685 -0.28463173 C79.88047264 -0.29015777 82.18882226 -0.30094866 84.49712753 -0.31719017 C87.74024982 -0.33909343 90.98288939 -0.3419615 94.22607422 -0.34057617 C95.17194901 -0.351362 96.11782379 -0.36214783 97.09236145 -0.3732605 C113.65272584 -0.29714333 128.03513117 8.14445676 140 19 C141.01320313 19.87398438 141.01320313 19.87398438 142.046875 20.765625 C143.75 22.3125 143.75 22.3125 146 25 C145.640625 27.16796875 145.640625 27.16796875 145 29 C143 29 143 29 140.875 26.9375 C140.42769531 26.47859375 139.98039063 26.0196875 139.51953125 25.546875 C134.63090374 20.57027733 129.5046516 16.4539596 123.5 12.875 C121.93765625 11.94300781 121.93765625 11.94300781 120.34375 10.9921875 C105.90036952 3.91438228 92.35848049 3.25960193 76.5625 3.29296875 C74.34332946 3.27982557 72.12417081 3.26451342 69.9050293 3.24714661 C64.11834293 3.20759047 58.33197159 3.19712522 52.54516602 3.19311523 C46.61855693 3.183728 40.6921287 3.14627995 34.765625 3.11132812 C23.17709157 3.04705195 11.58869614 3.01356642 0 3 C0 2.01 0 1.02 0 0 Z " fill="#1D262E" transform="translate(474,312)"/>
<path d="M0 0 C2.96397581 2.52768204 4.16421205 5.24371314 5.6640625 8.8046875 C6.14617188 9.94550781 6.62828125 11.08632813 7.125 12.26171875 C7.62 13.45410156 8.115 14.64648438 8.625 15.875 C9.12773438 17.05964844 9.63046875 18.24429688 10.1484375 19.46484375 C12.20902125 24.37811737 13.95025696 28.75128481 15 34 C5.43 34 -4.14 34 -14 34 C-9.79189032 22.42769838 -5.10828782 11.20193065 0 0 Z " fill="#F7F8F8" transform="translate(957,644)"/>
<path d="M0 0 C2.21152962 2.76718039 3.76673207 5.41365757 5.15625 8.66796875 C5.53910156 9.56193359 5.92195312 10.45589844 6.31640625 11.37695312 C6.90228516 12.76817383 6.90228516 12.76817383 7.5 14.1875 C8.08587891 15.5497168 8.08587891 15.5497168 8.68359375 16.93945312 C11.0870738 22.59208213 13.04278219 28.12834658 15 34 C5.43 34 -4.14 34 -14 34 C-11.96830525 27.90491575 -9.63221311 22.01090122 -7.2043457 16.06665039 C-6.43305916 14.17661775 -5.66657489 12.28468399 -4.90039062 10.39257812 C-4.41634766 9.20470703 -3.93230469 8.01683594 -3.43359375 6.79296875 C-2.76928345 5.16137817 -2.76928345 5.16137817 -2.09155273 3.49682617 C-1 1 -1 1 0 0 Z " fill="#F7F8F8" transform="translate(660,644)"/>
<path d="M0 0 C1.27903198 -0.00058411 2.55806396 -0.00116821 3.87585449 -0.00177002 C7.3568451 -0.00291019 10.83727602 0.0204844 14.31813741 0.04852581 C17.96559712 0.07365705 21.61307192 0.07589064 25.26060486 0.08062744 C32.15591671 0.09302301 39.05097264 0.12579778 45.94617218 0.1660254 C53.8010924 0.21085014 61.65602532 0.23275695 69.51104176 0.25280714 C85.65847089 0.29453389 101.80564313 0.36481869 117.95288086 0.45410156 C117.95288086 0.78410156 117.95288086 1.11410156 117.95288086 1.45410156 C84.95288086 1.45410156 51.95288086 1.45410156 17.95288086 1.45410156 C17.95288086 2.44410156 17.95288086 3.43410156 17.95288086 4.45410156 C50.95288086 4.45410156 83.95288086 4.45410156 117.95288086 4.45410156 C117.95288086 4.78410156 117.95288086 5.11410156 117.95288086 5.45410156 C69.44288086 5.94910156 69.44288086 5.94910156 19.95288086 6.45410156 C20.61288086 7.11410156 21.27288086 7.77410156 21.95288086 8.45410156 C21.62288086 9.11410156 21.29288086 9.77410156 20.95288086 10.45410156 C16.87639726 10.02043309 13.26785983 9.30136121 9.39038086 7.95410156 C1.76268896 5.3304827 -7.72636192 3.40896202 -15.49633789 6.39550781 C-19.5961947 8.81298345 -21.80683651 11.20935553 -24.04711914 15.45410156 C-25.03711914 15.78410156 -26.02711914 16.11410156 -27.04711914 16.45410156 C-27.51781948 12.50021874 -27.23546674 10.75788801 -25.10961914 7.32910156 C-18.26453753 0.05557767 -9.39781996 -0.11332571 0 0 Z " fill="#5D646B" transform="translate(456.047119140625,310.5458984375)"/>
<path d="M0 0 C11.00809609 1.77714908 21.37607858 8.25789844 30.36328125 14.54296875 C31.46542969 15.31060547 31.46542969 15.31060547 32.58984375 16.09375 C34.19263542 17.22719829 35.78025131 18.38208013 37.36328125 19.54296875 C33.99365778 21.22778048 30.33573535 19.85564035 26.73828125 19.23046875 C19.13310709 17.95835945 11.54305084 16.9120857 3.87890625 16.0703125 C-5.44731265 14.67137966 -5.44731265 14.67137966 -9.07421875 11.23046875 C-10.79312361 8.27395239 -11.25362227 6.8918736 -10.63671875 3.54296875 C-7.65508179 -0.34448197 -4.63581406 -0.12894317 0 0 Z " fill="#F5F6F6" transform="translate(455.63671875,325.45703125)"/>
<path d="M0 0 C0.95354874 -0.00137466 1.90709747 -0.00274933 2.88954163 -0.00416565 C4.46370598 0.00122726 4.46370598 0.00122726 6.06967163 0.00672913 C7.17211716 0.0065831 8.27456268 0.00643707 9.41041565 0.00628662 C13.06817568 0.0069854 16.7258853 0.01477619 20.38363647 0.02259827 C22.91426567 0.02446257 25.44489522 0.02588641 27.9755249 0.02688599 C33.96430853 0.03031895 39.9530704 0.03820696 45.9418453 0.04823548 C52.75917177 0.05940418 59.5764991 0.06490898 66.39383245 0.06993091 C80.41908971 0.08038977 94.44433085 0.0979845 108.46957397 0.12025452 C108.46957397 1.44025452 108.46957397 2.76025452 108.46957397 4.12025452 C70.51957397 4.12025452 32.56957397 4.12025452 -6.53042603 4.12025452 C-6.53042603 3.13025452 -6.53042603 2.14025452 -6.53042603 1.12025452 C-4.13671263 -0.07660218 -2.67221342 -0.00296254 0 0 Z " fill="#282F36" transform="translate(611.5304260253906,448.87974548339844)"/>
<path d="M0 0 C0.99 1.485 0.99 1.485 2 3 C2.66 3 3.32 3 4 3 C4.09796875 3.88042969 4.1959375 4.76085937 4.296875 5.66796875 C4.44640625 6.82941406 4.5959375 7.99085938 4.75 9.1875 C4.88921875 10.33605469 5.0284375 11.48460937 5.171875 12.66796875 C6.38071576 17.53184219 8.40916354 19.94995094 12.5625 22.69140625 C17.29419961 24.49267826 22.00674543 25.19273798 27 25.9375 C29.1615665 26.28448311 31.32302264 26.63215429 33.484375 26.98046875 C36.63719586 27.47781645 39.79043271 27.96871767 42.94726562 28.43994141 C75.29950306 33.29950306 75.29950306 33.29950306 84 42 C83.01 42.495 83.01 42.495 82 43 C81.53348793 45.12576782 81.53348793 45.12576782 81.375 47.5625 C81.30023438 48.38878906 81.22546875 49.21507812 81.1484375 50.06640625 C81.07496094 51.02353516 81.07496094 51.02353516 81 52 C80.67 52 80.34 52 80 52 C80 49.03 80 46.06 80 43 C77.67607932 42.30629234 75.35200999 41.61308011 73.02734375 40.921875 C71.01272178 40.30839012 69.00464568 39.67297355 67.00390625 39.015625 C56.35874963 35.56026829 45.62011556 33.59664113 34.55078125 32.13671875 C32.83894653 31.90082031 32.83894653 31.90082031 31.0925293 31.66015625 C28.83490816 31.35242165 26.5745933 31.06365867 24.31176758 30.796875 C16.18598766 29.67957254 8.75314652 27.35578485 3.23168945 20.94775391 C-1.18880241 14.60140082 -0.47491725 7.41926286 0 0 Z " fill="#373E43" transform="translate(428,323)"/>
<path d="M0 0 C23.76 0 47.52 0 72 0 C72 1.32 72 2.64 72 4 C48.24 4 24.48 4 0 4 C0 2.68 0 1.36 0 0 Z " fill="#2E343A" transform="translate(608,414)"/>
<path d="M0 0 C17.57970997 0.08101249 32.69410772 11.48917994 44.83984375 23.2109375 C46 25 46 25 45.69140625 27.2265625 C45.34916016 28.10441406 45.34916016 28.10441406 45 29 C43 29 43 29 40.875 26.9375 C40.42769531 26.47859375 39.98039063 26.0196875 39.51953125 25.546875 C28.1914023 14.01489797 15.38078469 8.15480937 0 4 C0 2.68 0 1.36 0 0 Z " fill="#30383F" transform="translate(574,312)"/>
<path d="M0 0 C17.49 0 34.98 0 53 0 C53 1.32 53 2.64 53 4 C35.51 4 18.02 4 0 4 C0 2.68 0 1.36 0 0 Z " fill="#222A31" transform="translate(563,371)"/>
<path d="M0 0 C4.97554749 1.48791681 7.85153327 4.38405228 11.4296875 7.9609375 C12.02427765 8.54791412 12.6188678 9.13489075 13.23147583 9.73965454 C14.4807581 10.97816413 15.72612309 12.22063612 16.96777344 13.46679688 C18.87570331 15.37570367 20.80400826 17.26225515 22.734375 19.1484375 C23.94661015 20.35546898 25.15759276 21.56376001 26.3671875 22.7734375 C27.23728958 23.61894669 27.23728958 23.61894669 28.12496948 24.48153687 C29.71435547 26.09912109 29.71435547 26.09912109 32 29 C31.64285278 31.18130493 31.64285278 31.18130493 31 33 C27.33069303 31.72629745 24.97816931 30.34869708 22.2578125 27.5859375 C21.58363281 26.90660156 20.90945313 26.22726562 20.21484375 25.52734375 C19.52519531 24.81707031 18.83554687 24.10679687 18.125 23.375 C17.44308594 22.68792969 16.76117187 22.00085938 16.05859375 21.29296875 C12.047398 17.22065002 8.20858865 13.03516536 4.48364258 8.69970703 C2.74356295 6.70621775 0.90859274 4.83224903 -1 3 C-0.67 2.01 -0.34 1.02 0 0 Z " fill="#2A3139" transform="translate(666,383)"/>
<path d="M0 0 C0.99 1.485 0.99 1.485 2 3 C2.66 3 3.32 3 4 3 C4.09796875 3.88042969 4.1959375 4.76085937 4.296875 5.66796875 C4.44640625 6.82941406 4.5959375 7.99085938 4.75 9.1875 C4.88921875 10.33605469 5.0284375 11.48460937 5.171875 12.66796875 C6.37119121 17.49351934 8.38881384 19.90978097 12.4765625 22.67578125 C17.65486889 24.62195183 22.92054833 25.36194401 28.375 26.1875 C30.05142578 26.45336914 30.05142578 26.45336914 31.76171875 26.72460938 C34.50654947 27.15862107 37.25247486 27.58344795 40 28 C40 28.33 40 28.66 40 29 C37.03 29 34.06 29 31 29 C30.67 29.66 30.34 30.32 30 31 C20.95308159 30.45227425 12.07006528 29.10596547 5 23 C-0.85630263 15.99722543 -0.5616242 8.77381809 0 0 Z " fill="#3F464B" transform="translate(428,323)"/>
<path d="M0 0 C14.52 0 29.04 0 44 0 C44 1.32 44 2.64 44 4 C29.48 4 14.96 4 0 4 C0 2.68 0 1.36 0 0 Z " fill="#343C44" transform="translate(585,393)"/>
<path d="M0 0 C0.66 0 1.32 0 2 0 C2.268125 0.598125 2.53625 1.19625 2.8125 1.8125 C4.02327075 4.04286717 5.07680869 5.36173383 7 7 C15.67669177 8.6452644 24.69948048 8.1263492 33.50390625 8.09765625 C35.19498147 8.09578827 36.88605723 8.09436616 38.57713318 8.09336853 C43.00100227 8.08957328 47.42483787 8.07976896 51.84869385 8.06866455 C56.373734 8.05838569 60.89877963 8.05385711 65.42382812 8.04882812 C74.28256669 8.03814366 83.14128055 8.0211037 92 8 C90.64062915 5.1394109 89.35479531 3.14072301 87 1 C90.59758392 2.32273512 93.63737135 3.9194198 96.8125 6.0625 C97.60269531 6.58972656 98.39289063 7.11695313 99.20703125 7.66015625 C99.79871094 8.10230469 100.39039063 8.54445313 101 9 C101 9.33 101 9.66 101 10 C88.71742296 10.18541008 76.43517909 10.3275326 64.15148735 10.41449738 C58.44749377 10.45623811 52.74445794 10.51284703 47.04101562 10.60351562 C41.53609952 10.69047992 36.03210414 10.73828252 30.52655411 10.75901794 C28.42688627 10.77379304 26.32726852 10.80264684 24.22799301 10.84584045 C21.28484253 10.90398534 18.34548846 10.91191085 15.40185547 10.90820312 C14.53510696 10.93696533 13.66835846 10.96572754 12.77534485 10.99536133 C9.05319907 10.94467537 6.88447364 10.81893285 4.08646011 8.22825623 C0 2.95559791 0 2.95559791 0 0 Z " fill="#9A7761" transform="translate(472,504)"/>
<path d="M0 0 C3.63 0 7.26 0 11 0 C12 2 12 2 11.37890625 3.8671875 C10.7473029 6.08251863 10.7473029 6.08251863 12.21484375 8.0703125 C12.78332031 8.74835937 13.35179687 9.42640625 13.9375 10.125 C17 13.82232346 17 13.82232346 17 16 C14.36 16 11.72 16 9 16 C9 38.77 9 61.54 9 85 C8.67 85 8.34 85 8 85 C8 60.58 8 36.16 8 11 C9.65 11.99 11.3 12.98 13 14 C10.84691401 9.90842131 8.48712774 7.5285064 4.8125 4.75 C3.1942096 3.51833978 1.58571192 2.27332965 0 1 C0 0.67 0 0.34 0 0 Z " fill="#CAC2B9" transform="translate(239,38)"/>
<path d="M0 0 C3.46629835 1.48653506 5.69022036 3.45722351 8.328125 6.1328125 C9.12734375 6.93847656 9.9265625 7.74414062 10.75 8.57421875 C11.575 9.41597656 12.4 10.25773437 13.25 11.125 C14.51070312 12.39923828 14.51070312 12.39923828 15.796875 13.69921875 C17.86915683 15.79504923 19.93662393 17.89540713 22 20 C21.01 20.99 20.02 21.98 19 23 C14.11372232 19.02279724 9.52800519 14.75148106 5 10.375 C4.39969971 9.81272705 3.79939941 9.2504541 3.1809082 8.67114258 C1.5 7.0234375 1.5 7.0234375 -1 4 C-0.65625 1.81103516 -0.65625 1.81103516 0 0 Z " fill="#202830" transform="translate(697,413)"/>
<path d="M0 0 C12.87 0 25.74 0 39 0 C38.67 0.99 38.34 1.98 38 3 C25.46 3 12.92 3 0 3 C0 2.01 0 1.02 0 0 Z " fill="#232B34" transform="translate(474,312)"/>
<path d="M0 0 C2 2 2 2 2.3125 5.4375 C2 9 2 9 0.8125 11 C-1 12 -1 12 -3.5 11.875 C-6.1985972 10.93049098 -7.3982611 10.36045732 -9 8 C-9.42822025 5.14519831 -9.40659584 3.65507108 -7.875 1.1875 C-5.16554166 -0.52849028 -3.13704316 -0.333728 0 0 Z " fill="#F4F5F6" transform="translate(650,352)"/>
<path d="M0 0 C-1.20160767 0.42297363 -1.20160767 0.42297363 -2.42749023 0.85449219 C-5.44220009 1.9176623 -8.45571843 2.98412987 -11.46850586 4.05273438 C-12.76459803 4.5117101 -14.06113701 4.96942637 -15.3581543 5.42578125 C-22.14307208 7.81398851 -28.84799574 10.21694199 -35.34790039 13.30957031 C-37 14 -37 14 -39 14 C-38.9074707 12.15893555 -38.9074707 12.15893555 -38 10 C-35.19604492 8.64379883 -35.19604492 8.64379883 -31.48046875 7.45703125 C-30.82548904 7.24310226 -30.17050934 7.02917328 -29.49568176 6.8087616 C-27.39761764 6.12773037 -25.29300378 5.47012454 -23.1875 4.8125 C-21.78011909 4.35890811 -20.37321086 3.90384677 -18.96679688 3.44726562 C-15.31944398 2.27043726 -11.66769567 1.11223047 -8 0 C-7.27981689 -0.22985596 -6.55963379 -0.45971191 -5.81762695 -0.6965332 C-3.62669769 -1.06232569 -2.09724449 -0.6741143 0 0 Z " fill="#E6E8EA" transform="translate(357,131)"/>
<path d="M0 0 C0.33 0 0.66 0 1 0 C1.04944705 4.50234373 1.08574161 9.0045293 1.10986328 13.50708008 C1.11991935 15.03868361 1.133566 16.57026795 1.15087891 18.10180664 C1.17514498 20.30359636 1.18648688 22.50513219 1.1953125 24.70703125 C1.20563507 25.39150833 1.21595764 26.07598541 1.22659302 26.78120422 C1.22745382 30.43061661 1.08567666 31.87148502 -1 35 C-1.99 34.67 -2.98 34.34 -4 34 C-3.71734939 30.39506861 -3.42217168 26.79126108 -3.125 23.1875 C-3.04636719 22.18267578 -2.96773437 21.17785156 -2.88671875 20.14257812 C-2.31746254 13.33339812 -1.34778672 6.6984173 0 0 Z " fill="#CFD2D6" transform="translate(646,368)"/>
<path d="M0 0 C5.94 0 11.88 0 18 0 C18 0.33 18 0.66 18 1 C13.545 1.495 13.545 1.495 9 2 C9.7940625 2.68707031 10.588125 3.37414063 11.40625 4.08203125 C12.43788765 4.99174809 13.4691166 5.90192854 14.5 6.8125 C15.02464844 7.26431641 15.54929688 7.71613281 16.08984375 8.18164062 C17.45095423 9.39249865 18.73153413 10.69240937 20 12 C20 12.99 20 13.98 20 15 C15.3769004 13.0293239 12.22921173 9.6130588 8.6328125 6.19140625 C5.89907645 3.91599687 3.2296117 2.46415341 0 1 C0 0.67 0 0.34 0 0 Z " fill="#F9E8D2" transform="translate(232,37)"/>
<path d="M0 0 C-0.99 0.66 -1.98 1.32 -3 2 C-3 2.66 -3 3.32 -3 4 C-3.928125 4.598125 -4.85625 5.19625 -5.8125 5.8125 C-9.0598211 8.0410537 -10.10465914 9.66058991 -12 13 C-12.99 13.33 -13.98 13.66 -15 14 C-15.48715502 9.90789784 -15.19955376 8.29933063 -12.875 4.8125 C-9.36314003 1.03202751 -5.22074172 -2.20877534 0 0 Z " fill="#32393F" transform="translate(444,313)"/>
<path d="M0 0 C6.73742646 -0.11044961 13.29980211 0.29867087 20 1 C20 1.33 20 1.66 20 2 C17.36 2 14.72 2 12 2 C12 2.66 12 3.32 12 4 C13.65 4 15.3 4 17 4 C17 4.33 17 4.66 17 5 C10.86257765 5.21534815 5.62145434 4.81072717 0 2 C0 1.34 0 0.68 0 0 Z " fill="#353B42" transform="translate(452,341)"/>
<path d="M0 0 C1.07765625 0.11085938 2.1553125 0.22171875 3.265625 0.3359375 C4.08546875 0.43132812 4.9053125 0.52671875 5.75 0.625 C5.75 1.615 5.75 2.605 5.75 3.625 C4.02119018 3.67949838 2.29187288 3.71801688 0.5625 3.75 C-0.40042969 3.77320313 -1.36335938 3.79640625 -2.35546875 3.8203125 C-5.37812778 3.6163544 -7.51769985 2.89374632 -10.25 1.625 C-6.69181064 -0.63773207 -4.12452049 -0.44831744 0 0 Z " fill="#353D40" transform="translate(465.25,351.375)"/>
<path d="M0 0 C0.33 0 0.66 0 1 0 C1.38063221 2.3260857 1.71269945 4.66055264 2 7 C1.67 7.33 1.34 7.66 1 8 C0.84126045 10.21687994 0.74866163 12.43855298 0.68359375 14.66015625 C0.66281265 15.32462265 0.64203156 15.98908905 0.62062073 16.6736908 C0.55506342 18.80318543 0.49621215 20.93280668 0.4375 23.0625 C0.39432061 24.50326847 0.35070651 25.94402399 0.30664062 27.38476562 C0.19937607 30.9230404 0.09812629 34.46145869 0 38 C-0.33 38 -0.66 38 -1 38 C-1.02483101 33.55257542 -1.04292183 29.10518822 -1.05493164 24.65771484 C-1.05994162 23.14663998 -1.06675144 21.63556991 -1.07543945 20.12451172 C-1.08765176 17.94497488 -1.09326178 15.76550247 -1.09765625 13.5859375 C-1.10289307 12.2767334 -1.10812988 10.9675293 -1.11352539 9.61865234 C-1.00972117 6.30986487 -0.63432368 3.24404982 0 0 Z " fill="#787C80" transform="translate(523,135)"/>
<path d="M0 0 C-1.58667578 3.90285767 -4.13350481 6.33520982 -7.125 9.25 C-8.03507813 10.14203125 -8.94515625 11.0340625 -9.8828125 11.953125 C-10.58148438 12.62859375 -11.28015625 13.3040625 -12 14 C-12.99 13.67 -13.98 13.34 -15 13 C-12.88094537 10.82722286 -10.75527122 8.66173092 -8.625 6.5 C-8.02171875 5.87996094 -7.4184375 5.25992188 -6.796875 4.62109375 C-6.21679688 4.03457031 -5.63671875 3.44804687 -5.0390625 2.84375 C-4.50490723 2.29912109 -3.97075195 1.75449219 -3.42041016 1.19335938 C-2 0 -2 0 0 0 Z " fill="#40464C" transform="translate(234,144)"/>
<path d="M0 0 C1.75070517 0.11470137 3.50057536 0.24219028 5.25 0.375 C6.22453125 0.44460938 7.1990625 0.51421875 8.203125 0.5859375 C11 1 11 1 15 3 C12.03 3 9.06 3 6 3 C5.67 3.66 5.34 4.32 5 5 C1.7 4.67 -1.6 4.34 -5 4 C-3.68 3.34 -2.36 2.68 -1 2 C-0.67 1.34 -0.34 0.68 0 0 Z " fill="#5A5F63" transform="translate(453,349)"/>
<path d="M0 0 C3.59758392 1.32273512 6.63737135 2.9194198 9.8125 5.0625 C10.99779297 5.85333984 10.99779297 5.85333984 12.20703125 6.66015625 C12.79871094 7.10230469 13.39039063 7.54445313 14 8 C14 8.33 14 8.66 14 9 C10.625 9.125 10.625 9.125 7 9 C5 7 5 7 4.0625 5.0625 C2.96378184 2.92969416 1.76412816 1.60375287 0 0 Z " fill="#9F8069" transform="translate(559,505)"/>
<path d="M0 0 C-2.74403499 1.06046767 -5.49327736 2.09851303 -8.25 3.125 C-9.02730469 3.42792969 -9.80460937 3.73085937 -10.60546875 4.04296875 C-11.73662109 4.45869141 -11.73662109 4.45869141 -12.890625 4.8828125 C-13.92751465 5.27557373 -13.92751465 5.27557373 -14.98535156 5.67626953 C-17.58791291 6.09447074 -18.79567798 5.35284861 -21 4 C-18.25336296 3.13343002 -15.5035757 2.28148214 -12.75 1.4375 C-11.97269531 1.19064453 -11.19539063 0.94378906 -10.39453125 0.68945312 C-9.26337891 0.34624023 -9.26337891 0.34624023 -8.109375 -0.00390625 C-7.07248535 -0.32597046 -7.07248535 -0.32597046 -6.01464844 -0.65454102 C-3.71321296 -1.0491764 -2.20383318 -0.71084423 0 0 Z " fill="#C3C7CB" transform="translate(357,131)"/>
<path d="M0 0 C0 0.99 0 1.98 0 3 C-3.04089921 5.7530471 -6.70847265 7.64727229 -10.25 9.6875 C-11.32765625 10.31011719 -12.4053125 10.93273437 -13.515625 11.57421875 C-14.33546875 12.04472656 -15.1553125 12.51523437 -16 13 C-16.66 12.34 -17.32 11.68 -18 11 C-17.28714844 10.62488281 -16.57429688 10.24976563 -15.83984375 9.86328125 C-10.26424715 6.88412667 -5.04428098 3.81123452 0 0 Z " fill="#C4AE99" transform="translate(401,256)"/>
<path d="M0 0 C5.94 0 11.88 0 18 0 C18 0.33 18 0.66 18 1 C13.545 1.495 13.545 1.495 9 2 C9 3.32 9 4.64 9 6 C6.03 4.35 3.06 2.7 0 1 C0 0.67 0 0.34 0 0 Z " fill="#EBE0D4" transform="translate(232,37)"/>
<path d="M0 0 C0.33 0 0.66 0 1 0 C1 5.94 1 11.88 1 18 C-0.98 18 -2.96 18 -5 18 C-4.52949219 17.66355469 -4.05898438 17.32710938 -3.57421875 16.98046875 C-1.25657227 14.06471995 -1.17788982 10.90270639 -0.8125 7.3125 C-0.73064453 6.61060547 -0.64878906 5.90871094 -0.56445312 5.18554688 C-0.36470727 3.45833274 -0.18080012 1.72929997 0 0 Z " fill="#B69B84" transform="translate(676,303)"/>
<path d="M0 0 C-1.47721422 3.45201639 -3.43794001 5.64961936 -6.125 8.25 C-6.84945312 8.95640625 -7.57390625 9.6628125 -8.3203125 10.390625 C-8.87460938 10.92171875 -9.42890625 11.4528125 -10 12 C-10.66 11.34 -11.32 10.68 -12 10 C-10.38113585 8.32737283 -8.7547271 6.66204463 -7.125 5 C-6.22007812 4.071875 -5.31515625 3.14375 -4.3828125 2.1875 C-2 0 -2 0 0 0 Z " fill="#43494E" transform="translate(181,182)"/>
<path d="M0 0 C3.86779381 2.88538792 6.80698215 5.98188807 9.8125 9.75 C10.60269531 10.73484375 11.39289062 11.7196875 12.20703125 12.734375 C12.79871094 13.48203125 13.39039063 14.2296875 14 15 C13.01 15 12.02 15 11 15 C8.97553181 12.91986626 7.14303693 10.86416001 5.3125 8.625 C4.80138672 8.02171875 4.29027344 7.4184375 3.76367188 6.796875 C0 2.27443884 0 2.27443884 0 0 Z " fill="#A98D76" transform="translate(503,453)"/>
<path d="M0 0 C1.79133978 -0.05391993 3.58313899 -0.09275571 5.375 -0.125 C6.37273437 -0.14820313 7.37046875 -0.17140625 8.3984375 -0.1953125 C11 0 11 0 13 2 C10.27157939 3.36421031 8.39046682 2.87807211 5.375 2.5625 C4.37210937 2.46066406 3.36921875 2.35882813 2.3359375 2.25390625 C1.56507813 2.17011719 0.79421875 2.08632813 0 2 C0 1.34 0 0.68 0 0 Z " fill="#2C343A" transform="translate(464,343)"/>
<path d="M0 0 C2.46800047 1.15173355 4.04783565 2.04783565 6 4 C5.625 6.125 5.625 6.125 5 8 C4.34 8 3.68 8 3 8 C0.8125 5.6875 0.8125 5.6875 -1 3 C-0.67 2.01 -0.34 1.02 0 0 Z " fill="#282F36" transform="translate(614,333)"/>
<path d="M0 0 C-2.45546966 0.86329773 -4.91378043 1.71589436 -7.375 2.5625 C-8.42300781 2.9327832 -8.42300781 2.9327832 -9.4921875 3.31054688 C-11.30959075 3.93091049 -13.15391397 4.47106524 -15 5 C-15.66 4.67 -16.32 4.34 -17 4 C-11.83084406 0.44620529 -6.17192006 -1.92442942 0 0 Z " fill="#C3AC95" transform="translate(421,282)"/>
<path d="M0 0 C4.875 4.625 4.875 4.625 6 8 C6.99 8.33 7.98 8.66 9 9 C10.1875 12.0625 10.1875 12.0625 11 15 C6.82616605 11.07168569 3.10605574 6.83520017 0 2 C0 1.34 0 0.68 0 0 Z " fill="#B2957E" transform="translate(406,415)"/>
<path d="M0 0 C0.66 0.33 1.32 0.66 2 1 C-2.455 4.465 -2.455 4.465 -7 8 C-7.33 6.68 -7.66 5.36 -8 4 C-5.31143836 2.20762558 -3.0466145 1.01553817 0 0 Z " fill="#505356" transform="translate(218,292)"/>
<path d="M0 0 C2.31 0.66 4.62 1.32 7 2 C6.01 2.495 6.01 2.495 5 3 C5.33 3.99 5.66 4.98 6 6 C3.69 5.34 1.38 4.68 -1 4 C-0.67 2.68 -0.34 1.36 0 0 Z " fill="#40464D" transform="translate(494,357)"/>
<path d="M0 0 C-0.99 0.66 -1.98 1.32 -3 2 C-3 2.66 -3 3.32 -3 4 C-6.28976808 5.09658936 -7.71303767 4.79953138 -11 4 C-7.64918101 0.31409911 -4.96535219 -1.77334007 0 0 Z " fill="#434950" transform="translate(444,313)"/>
<path d="M0 0 C2 0 2 0 3.47265625 1.35546875 C8.72144401 7.40382614 8.72144401 7.40382614 9 12 C4.99027798 8.32442148 2.54664585 4.81033104 0 0 Z " fill="#AF917B" transform="translate(424,440)"/>
<path d="M0 0 C0.33 0 0.66 0 1 0 C1.06058594 0.69867188 1.12117187 1.39734375 1.18359375 2.1171875 C1.26738281 3.02726562 1.35117187 3.93734375 1.4375 4.875 C1.51871094 5.77992187 1.59992187 6.68484375 1.68359375 7.6171875 C1.86989285 10.01110861 1.86989285 10.01110861 3 12 C5.01669827 13.13350534 5.01669827 13.13350534 7 14 C4.69 14 2.38 14 0 14 C0 9.38 0 4.76 0 0 Z " fill="#64686D" transform="translate(638,101)"/>
<path d="M0 0 C3.9252025 3.70090521 6.94580156 7.54959656 10 12 C9.01 12 8.02 12 7 12 C5.4296875 10.13671875 5.4296875 10.13671875 3.875 7.6875 C3.09769531 6.48673828 3.09769531 6.48673828 2.3046875 5.26171875 C1 3 1 3 0 0 Z " fill="#AF947E" transform="translate(492,439)"/>
<path d="M0 0 C-1.26831693 0.81642254 -2.53975931 1.62799105 -3.8125 2.4375 C-4.87404297 3.11619141 -4.87404297 3.11619141 -5.95703125 3.80859375 C-8 5 -8 5 -11 6 C-11 5.01 -11 4.02 -11 3 C-9.68 3 -8.36 3 -7 3 C-7 2.34 -7 1.68 -7 1 C-3.375 -1.125 -3.375 -1.125 0 0 Z " fill="#C1A78F" transform="translate(448,268)"/>
<path d="M0 0 C3.66161578 1.22053859 4.16270474 2.36782304 6.1875 5.5625 C6.71730469 6.38878906 7.24710937 7.21507812 7.79296875 8.06640625 C8.19128906 8.70449219 8.58960938 9.34257812 9 10 C8.67 10.66 8.34 11.32 8 12 C6.66081194 10.37982158 5.3288031 8.75370657 4 7.125 C3.2575 6.22007812 2.515 5.31515625 1.75 4.3828125 C0 2 0 2 0 0 Z " fill="#AA8D77" transform="translate(434,453)"/>
<path d="M0 0 C2.64 0 5.28 0 8 0 C8 0.33 8 0.66 8 1 C5.36 1 2.72 1 0 1 C0 0.67 0 0.34 0 0 Z M-3 1 C-2.01 1 -1.02 1 0 1 C0 1.66 0 2.32 0 3 C1.65 3 3.3 3 5 3 C5 3.33 5 3.66 5 4 C2.36 4 -0.28 4 -3 4 C-3 3.01 -3 2.02 -3 1 Z " fill="#555A5F" transform="translate(464,342)"/>
<path d="M0 0 C-0.6875 1.9375 -0.6875 1.9375 -2 4 C-5.39785892 5.16242542 -7.6100949 4.94484589 -11 4 C-9.5437455 3.32880451 -8.08492133 2.66318193 -6.625 2 C-5.81289063 1.62875 -5.00078125 1.2575 -4.1640625 0.875 C-2 0 -2 0 0 0 Z " fill="#5B5F61" transform="translate(263,129)"/>
<path d="M0 0 C1.98 0 3.96 0 6 0 C6.33 0.66 6.66 1.32 7 2 C6.67 2.99 6.34 3.98 6 5 C5.01 5 4.02 5 3 5 C1.3125 2.5 1.3125 2.5 0 0 Z " fill="#E4CAB0" transform="translate(244,38)"/>
<path d="M0 0 C0.66 0 1.32 0 2 0 C2.226875 0.556875 2.45375 1.11375 2.6875 1.6875 C4.35896766 4.63246684 6.55276352 6.68156544 9 9 C8.01 9.33 7.02 9.66 6 10 C4.99421411 8.71283353 3.99553202 7.42011342 3 6.125 C2.443125 5.40570313 1.88625 4.68640625 1.3125 3.9453125 C0 2 0 2 0 0 Z " fill="#A68670" transform="translate(472,504)"/>
<path d="M0 0 C0.33 0 0.66 0 1 0 C1 1.98 1 3.96 1 6 C1.66 6 2.32 6 3 6 C2.67 7.98 2.34 9.96 2 12 C1.34 12 0.68 12 0 12 C0 8.04 0 4.08 0 0 Z " fill="#24282C" transform="translate(108,425)"/>
<path d="M0 0 C3.19199167 2.41556126 5.74716687 4.68003538 8 8 C7.67 8.66 7.34 9.32 7 10 C3.60582235 6.87378374 1.3937282 4.43458973 0 0 Z " fill="#B49883" transform="translate(484,429)"/>
<path d="M0 0 C-0.33 0.99 -0.66 1.98 -1 3 C-3.64 2.67 -6.28 2.34 -9 2 C-5.5647952 -0.29013653 -4.014669 -0.17842973 0 0 Z " fill="#293137" transform="translate(453,349)"/>
<path d="M0 0 C1.65 0 3.3 0 5 0 C4.67 1.32 4.34 2.64 4 4 C2.35 3.67 0.7 3.34 -1 3 C-0.67 2.01 -0.34 1.02 0 0 Z " fill="#2A3339" transform="translate(574,312)"/>
<path d="M0 0 C0.66 0.66 1.32 1.32 2 2 C-0.97 4.475 -0.97 4.475 -4 7 C-4.66 6.67 -5.32 6.34 -6 6 C-4.02 4.02 -2.04 2.04 0 0 Z " fill="#C3AA92" transform="translate(412,246)"/>
<path d="M0 0 C2.31 0 4.62 0 7 0 C7 0.99 7 1.98 7 3 C4.625 3.1875 4.625 3.1875 2 3 C1.34 2.01 0.68 1.02 0 0 Z " fill="#272D31" transform="translate(464,352)"/>
<path d="M0 0 C-0.66 1.98 -1.32 3.96 -2 6 C-3.65 5.67 -5.3 5.34 -7 5 C-2.25 0 -2.25 0 0 0 Z " fill="#4F5458" transform="translate(204,164)"/>
<path d="M0 0 C2 0 2 0 4.1875 1.75 C5.0846875 2.86375 5.0846875 2.86375 6 4 C5.75 6.25 5.75 6.25 5 8 C0 2.25 0 2.25 0 0 Z " fill="#B69A84" transform="translate(394,399)"/>
<path d="M0 0 C-0.66 1.32 -1.32 2.64 -2 4 C-2.99 4 -3.98 4 -5 4 C-5.66 3.34 -6.32 2.68 -7 2 C-4.35261084 0.5393715 -3.10551666 0 0 0 Z " fill="#393F47" transform="translate(438,316)"/>
<path d="M0 0 C2.0625 0.4375 2.0625 0.4375 4 1 C3.2884375 1.5878125 3.2884375 1.5878125 2.5625 2.1875 C0.64820367 4.40808374 0.38733012 6.13375709 0 9 C-0.33 9 -0.66 9 -1 9 C-1.09765625 2.84765625 -1.09765625 2.84765625 -1 1 C-0.67 0.67 -0.34 0.34 0 0 Z " fill="#686D72" transform="translate(637,122)"/>
<path d="M0 0 C0.33 0 0.66 0 1 0 C2.12029814 5.48946087 1.79217969 8.83430559 0 14 C-0.33 14 -0.66 14 -1 14 C-1.08333357 9.1666528 -0.95261487 4.76307437 0 0 Z " fill="#85898C" transform="translate(523,135)"/>
</svg>
